<?xml version="1.0" encoding="UTF-8"?>
<svg width="1600px" height="738px" viewBox="0 0 1600 738" version="1.1" xmlns="http://www.w3.org/2000/svg" xmlns:xlink="http://www.w3.org/1999/xlink">
    <!-- Generator: Sketch 52.6 (67491) - http://www.bohemiancoding.com/sketch -->
    <title>Orthodrome</title>
    <desc>Created with Sketch.</desc>
    <defs>
        <path d="M358.49,720.71 C556.09,720.71 716.27,559.53 716.27,360.71 C716.27,161.89 556.08,0.71 358.49,0.71 C160.9,0.708 0.71,161.89 0.71,360.71 C0.709,559.53 160.9,720.71 358.49,720.71 Z" id="path-1"></path>
        <radialGradient cx="50.0001398%" cy="50.0002778%" fx="50.0001398%" fy="50.0002778%" r="50.1551233%" gradientTransform="translate(0.500001,0.500003),scale(1.000000,0.993833),translate(-0.500001,-0.500003)" id="radialGradient-3">
            <stop stop-color="#A3CD39" offset="0%"></stop>
            <stop stop-color="#9FCC3B" offset="17.21%"></stop>
            <stop stop-color="#92C83E" offset="36.26%"></stop>
            <stop stop-color="#6CBE45" offset="67.58%"></stop>
            <stop stop-color="#57B447" offset="74.02%"></stop>
            <stop stop-color="#19A64A" offset="86.26%"></stop>
            <stop stop-color="#139E49" offset="88.45%"></stop>
            <stop stop-color="#149B48" offset="89.01%"></stop>
            <stop stop-color="#0A9347" offset="100%"></stop>
        </radialGradient>
        <path d="M358.49,712.71 C307.782,712.71 259.426,702.048 215.68,682.89 C217.985,680.967 217.985,677.109 214.721,676.219 C213.535,673.846 213.238,666.427 218.579,667.023 C223.918,667.615 234.304,673.548 231.634,663.165 C228.963,652.783 234.007,662.276 234.007,662.276 C234.007,662.276 235.785,661.386 238.159,663.759 C240.532,666.133 244.093,667.912 244.985,666.133 C245.874,664.352 250.324,661.681 255.96,662.573 C261.599,663.462 264.267,654.857 264.267,654.857 C264.267,654.857 271.388,663.461 266.347,648.626 C261.302,633.794 266.64,640.319 269.908,639.728 C269.61,637.355 271.094,639.43 271.388,635.278 C273.169,637.057 289.189,636.759 289.189,636.759 C289.189,636.759 287.709,631.718 290.082,630.234 C294.234,635.278 304.617,636.168 302.839,632.012 C318.859,622.518 307.585,619.552 311.443,616.882 C315.298,614.211 317.377,608.574 312.333,604.124 C313.521,603.236 316.485,598.783 316.19,595.223 C328.65,595.521 323.159,590.922 323.159,590.922 C323.159,590.922 326.573,591.369 325.684,587.809 C324.791,584.248 335.178,582.764 334.583,580.688 C333.99,578.61 337.551,575.347 340.219,574.754 C342.89,574.159 346.45,567.633 347.636,565.555 C348.824,563.478 340.815,558.732 340.815,558.732 C340.815,558.732 326.871,560.807 332.061,558.29 C337.251,555.767 326.275,553.984 322.418,554.58 C321.826,551.02 318.266,550.127 318.266,550.127 C318.266,550.127 310.256,552.206 309.365,547.754 C307.386,537.864 297.203,543.007 297.203,543.007 C297.203,543.007 286.224,540.042 282.367,535.887 C277.917,540.042 269.61,538.557 275.842,535.592 C282.071,532.623 279.403,528.472 276.433,529.361 C273.469,530.251 263.38,530.251 262.787,526.393 C259.226,525.504 257.146,530.846 255.666,532.033 C254.183,529.659 245.577,533.514 242.019,534.7 C239.942,532.922 236.083,536.482 234.305,535.593 C232.525,534.7 228.075,537.67 231.337,533.515 C234.6,529.362 238.16,532.624 239.644,531.735 C241.129,530.847 241.72,529.66 241.72,529.66 C241.72,529.66 245.281,531.14 250.028,529.362 C254.774,527.582 255.072,524.021 253.294,521.353 C251.512,518.682 248.841,524.021 244.987,524.616 C244.455,522.226 246.467,522.539 247.063,520.461 C247.654,518.385 246.467,517.198 244.392,517.495 C242.907,520.758 239.053,524.616 233.71,524.021 C233.71,520.757 231.337,523.726 227.185,526.394 C223.031,529.065 222.141,523.428 225.106,522.539 C228.075,521.648 234.898,518.088 238.459,517.495 C242.02,516.9 239.348,514.824 240.832,513.934 C242.315,513.046 242.907,517.792 243.205,510.077 C243.503,502.365 236.974,505.628 237.271,501.18 C237.569,496.727 234.008,493.166 232.226,490.498 C230.448,487.827 230.746,485.155 230.746,485.155 L227.777,485.453 C227.777,485.453 222.141,481.597 218.581,483.377 C212.945,474.178 206.714,483.377 205.526,479.52 C204.34,475.664 196.922,478.037 193.659,475.959 C190.396,473.883 196.922,467.355 191.877,464.389 C188.328,462.301 187.429,457.564 187.429,457.564 C187.429,457.564 181.792,461.124 181.495,454.003 C181.197,446.883 176.156,448.366 173.781,450.442 C173.781,448.366 171.703,447.478 169.628,446.882 C168.737,445.103 175.562,444.214 175.562,444.214 C175.562,444.214 178.232,445.103 180.308,444.508 C179.717,439.762 172.889,439.762 171.704,440.059 C170.516,440.357 163.397,443.028 162.21,441.84 C161.022,440.653 157.76,437.686 156.276,437.984 C154.796,438.281 146.487,435.907 146.487,435.907 C146.487,435.907 145.004,431.753 143.221,431.753 C141.444,431.753 139.07,431.161 138.18,427.601 C139.66,426.116 139.07,424.335 138.773,419.885 C138.475,415.436 136.994,415.436 132.837,417.512 C132.837,417.512 135.51,424.632 130.464,427.005 C125.42,429.379 129.576,431.753 129.576,431.753 C129.576,431.753 131.059,434.424 128.685,436.202 C126.312,437.984 127.201,438.281 123.939,437.095 C120.672,435.907 121.267,432.348 122.751,430.864 C124.232,429.38 125.125,427.601 126.902,425.522 C128.684,423.446 126.311,421.962 126.014,420.182 C125.716,418.402 125.418,416.325 128.979,415.436 C132.54,414.546 130.76,412.173 129.575,412.765 C128.387,413.361 128.09,414.248 125.125,413.952 C122.156,412.174 120.672,412.469 119.191,414.842 C117.408,413.654 105.542,415.437 105.838,417.215 C106.136,418.997 106.431,420.481 104.652,421.072 C102.87,421.668 101.98,424.041 101.682,427.601 C99.904,438.576 97.828,426.413 97.828,423.148 C97.828,419.885 97.232,419.294 94.115,418.256 C92.78,414.844 88.036,415.436 86.848,416.028 C85.662,416.623 78.541,417.214 78.541,416.028 C78.541,414.84 79.431,407.719 76.168,407.719 C75.573,405.346 76.466,402.973 73.94,398.969 C76.758,399.117 75.573,397.039 74.683,394.519 C74.683,394.519 74.237,391.106 73.495,390.513 C74.534,390.364 74.534,389.029 74.534,389.029 C74.534,389.029 78.838,389.029 78.838,385.323 C78.838,381.612 76.465,380.87 77.205,378.944 C75.277,377.163 77.65,373.304 79.133,372.416 C80.616,371.526 82.101,367.966 78.243,367.371 C79.43,364.406 75.277,362.032 70.233,361.735 C69.045,360.548 68.746,358.472 63.555,358.174 C58.364,357.876 62.222,354.316 64.002,353.13 C65.782,351.942 67.621,341.136 66.375,340.968 C70.823,341.56 73.494,342.155 73.494,338.297 C73.494,334.439 77.352,337.701 77.055,332.363 C76.757,327.02 83.768,334.891 78.243,325.54 C74.385,319.012 72.012,324.353 68.156,322.869 C64.16,321.334 60.442,326.726 64.597,331.177 C66.672,332.066 62.64,337.111 56.881,337.111 C54.805,337.111 51.835,329.841 51.835,328.803 C51.835,327.765 51.39,325.834 48.127,324.503 C44.864,323.166 45.901,319.012 48.574,318.122 C49.169,315.153 48.425,308.185 48.425,308.185 C48.425,308.185 49.462,305.66 49.169,305.068 C50.798,304.178 51.688,297.505 51.542,296.166 C50.354,292.902 54.21,289.937 59.105,289.789 C59.994,288.011 58.215,282.669 57.475,281.925 C56.731,281.185 59.551,282.371 59.253,277.178 C61.328,276.289 62.221,274.956 62.221,272.431 C63.554,269.911 64.001,272.431 64.596,270.057 C65.187,267.684 64.297,264.869 65.782,264.123 C67.264,263.383 69.935,263.531 70.53,263.681 C74.978,264.718 74.978,267.39 77.944,266.497 C80.912,265.608 80.317,267.684 80.615,270.354 C80.912,273.025 81.207,276.289 82.543,274.509 C82.543,274.509 85.213,275.697 83.73,280.145 C83.433,281.779 84.917,281.035 84.771,282.519 C85.959,285.485 89.072,284.152 89.072,284.152 C89.072,284.152 90.11,283.263 89.367,281.631 C88.627,279.998 88.477,275.4 89.519,274.956 C90.552,274.51 88.477,271.839 88.477,271.839 C88.477,271.839 86.846,268.576 89.664,269.614 C92.483,270.651 92.037,271.098 92.483,272.43 C92.927,273.769 95.155,274.659 98.417,274.211 C101.68,273.769 94.266,275.844 103.164,277.177 C104.352,279.997 100.962,277.917 104.352,280.738 C105.241,281.481 103.905,282.966 103.164,283.706 C102.42,284.45 102.42,286.228 103.164,286.672 C103.904,287.118 105.39,286.229 105.687,287.267 C106.427,286.229 107.762,288.305 107.911,290.233 C110.433,292.758 108.21,295.277 106.724,296.167 C105.24,297.06 107.32,299.728 107.32,299.728 C104.054,300.025 104.054,301.658 104.351,302.101 C104.649,302.547 104.499,303.44 104.054,303.882 C105.834,305.218 104.499,307.889 103.759,311.003 C105.389,312.781 105.091,316.047 104.794,317.528 C104.499,319.012 107.762,319.161 108.651,316.638 C109.54,314.119 110.284,315.154 110.727,315.154 C111.172,315.154 111.172,313.376 110.134,312.189 C109.096,311.002 109.394,309.22 109.692,308.034 C109.987,306.847 109.837,306.256 112.065,306.256 C113.993,304.771 114.142,302.547 116.217,300.914 C113.546,300.914 114.286,299.879 114.439,298.692 C114.585,297.505 112.211,295.575 112.065,293.794 C111.913,292.015 111.913,289.344 115.03,285.486 C115.77,283.41 115.03,280.146 115.03,280.146 C116.515,277.773 117.996,278.369 120.518,278.219 C123.04,278.071 126.6,274.805 129.57,275.4 C132.535,275.992 134.018,271.543 134.018,271.543 C136.689,269.467 139.36,272.73 142.622,270.95 C145.885,269.169 150.335,265.906 149.445,262.937 C148.556,259.972 154.788,262.048 151.52,251.961 C149.147,247.215 154.188,247.513 151.967,245.287 C149.742,243.059 161.014,241.876 161.756,244.99 C164.279,244.544 163.389,239.499 168.135,242.468 C168.73,238.611 173.18,235.94 176.149,240.984 C179.114,246.028 182.376,241.282 182.376,241.282 C182.376,241.282 186.829,238.015 188.906,239.202 C190.981,240.39 181.781,232.974 188.459,231.048 C188.312,224.37 196.915,224.37 198.4,224.962 C199.883,225.558 208.722,227.272 212.938,223.481 C215.903,220.81 222.725,224.371 218.276,225.558 C213.828,226.745 211.751,228.523 211.453,230.006 C208.19,230.006 207.115,235.887 211.751,233.567 C214.124,232.38 216.201,228.523 217.685,230.304 C219.166,232.082 220.948,231.788 221.54,230.156 C227.623,231.049 229.4,229.71 229.4,229.71 C229.4,229.71 231.479,227.488 231.331,225.559 C233.557,224.819 237.265,224.819 237.414,221.258 C237.562,217.697 236.673,217.251 236.673,217.251 L232.071,217.399 C232.071,217.399 229.552,216.655 229.552,215.468 C228.51,217.399 223.912,217.101 223.617,216.064 C223.321,215.026 221.244,208.794 223.023,208.054 C224.804,207.313 223.023,205.975 223.023,205.975 C223.023,205.975 220.501,206.868 219.462,206.57 C218.423,206.272 220.945,204.197 219.462,203.601 C217.978,203.009 226.581,203.455 229.399,202.861 C232.218,202.269 233.852,201.971 231.33,197.374 C228.808,197.374 224.507,200.487 223.023,197.522 C221.539,194.553 215.455,200.338 212.785,199.598 C210.117,198.854 207.004,200.934 205.664,202.567 C204.333,202.567 201.363,206.57 198.25,206.421 C195.137,206.272 194.541,206.569 194.541,206.569 C194.541,206.569 193.354,204.493 194.541,204.787 C195.728,205.084 197.51,204.344 198.102,203.455 C198.696,202.566 202.105,202.119 203.886,200.783 C205.664,199.448 211.007,195.887 212.938,195.887 C214.865,195.887 213.53,193.072 216.051,193.662 C216.051,193.662 216.941,194.106 217.09,194.701 C217.238,195.292 219.016,192.773 222.279,194.552 C224.507,194.404 226.731,190.991 233.112,194.107 C233.852,195.74 234.298,198.261 234.298,198.261 C234.298,198.261 235.779,197.963 235.486,201.08 C235.189,204.195 238.154,206.716 240.825,204.195 C240.081,200.932 240.527,198.852 241.565,198.707 C242.606,198.559 245.126,198.853 245.126,198.853 C245.126,198.853 247.946,200.486 255.66,196.777 C257.736,196.926 259.366,195.293 259.813,192.92 C260.255,190.547 262.186,192.92 263.374,189.954 C264.56,186.986 267.082,186.986 267.822,186.691 C268.562,186.393 268.417,182.39 267.527,181.647 C266.634,180.907 265.154,180.757 264.114,181.647 C263.076,182.537 262.629,179.125 258.775,181.052 C254.917,182.982 255.065,181.647 255.065,181.647 C255.065,181.647 256.4,180.312 256.993,180.017 L256.993,178.83 C256.993,178.83 262.186,178.679 263.969,177.491 C265.747,176.304 264.115,172.302 258.035,173.339 C256.993,171.71 261.297,171.71 257.291,168.741 C256.55,166.516 258.035,166.367 256.4,163.696 L257.44,163.548 C257.44,163.548 257.14,160.136 257.882,159.544 C258.625,158.949 258.034,157.023 258.034,157.023 C258.034,157.023 259.807,154.503 258.18,151.238 L259.22,150.348 L258.923,148.567 C258.923,148.567 260.55,147.087 261.443,146.491 C262.336,145.896 261.739,143.522 261.739,143.522 L260.256,144.118 C260.256,144.118 258.328,139.966 255.508,144.415 C256.104,145.449 254.617,146.048 255.508,147.083 C253.582,147.529 252.99,149.308 252.99,149.308 C252.99,149.308 252.242,148.868 251.654,149.457 C250.616,148.269 249.726,148.865 248.834,149.457 C247.946,150.052 243.641,149.01 243.938,147.381 C244.828,147.083 244.98,146.637 243.496,145.897 C242.013,145.157 244.088,141.451 244.533,140.558 C244.98,139.668 248.239,136.848 248.388,139.371 C248.54,141.89 251.059,136.551 248.833,135.662 C247.796,134.028 248.686,130.022 247.353,129.134 C246.015,128.244 247.941,126.614 244.828,125.13 C241.714,123.646 242.16,122.459 242.16,122.459 C242.16,122.459 238.598,122.76 237.116,121.867 C235.634,120.974 238.303,120.825 234.891,120.234 C231.479,119.639 231.178,119.642 229.995,118.898 C228.807,118.155 226.434,119.196 226.434,119.196 C226.434,119.196 227.026,120.532 226.434,121.272 C225.838,122.012 227.622,122.901 227.622,122.901 C227.622,122.901 228.064,124.98 229.105,126.018 C230.142,127.057 227.472,125.426 228.509,129.281 C228.067,131.361 226.879,130.174 226.284,131.361 C225.693,132.548 224.651,133.88 224.651,133.88 C224.651,133.88 222.278,135.07 223.464,136.7 C224.651,138.329 217.084,132.994 219.014,143.522 C217.828,144.118 217.386,145.896 217.531,146.789 C214.714,145.601 213.97,147.384 213.97,151.535 C213.97,155.688 211.154,152.868 208.929,154.203 C206.85,154.943 203.584,154.355 203.289,154.501 C204.033,155.539 202.846,156.283 200.916,156.429 C200.916,156.429 198.397,157.172 197.95,160.435 C197.95,160.435 195.275,161.328 195.279,162.217 C195.279,163.106 189.538,163.343 194.389,166.963 C194.982,167.406 192.314,168.891 192.314,168.891 C192.314,168.891 192.013,170.822 192.016,171.116 C192.016,171.414 186.231,171.559 186.082,170.67 C185.933,169.781 182.819,170.819 185.784,166.813 C188.013,166.667 188.753,165.779 188.307,161.177 C187.86,156.578 189.79,162.364 192.462,155.242 C193.053,153.315 191.865,149.609 192.904,149.163 C193.945,148.717 193.202,147.382 193.202,147.382 C194.685,143.077 187.566,145.748 189.492,138.628 C191.42,131.508 190.232,135.368 187.859,134.029 C186.97,133.14 187.566,131.362 187.566,131.362 C187.566,131.362 181.483,132.694 184.893,126.909 C188.306,121.124 183.41,124.387 188.011,120.826 L187.713,119.197 C187.713,119.197 189.641,121.571 191.571,112.817 C193.646,112.817 197.207,110.146 197.352,109.256 C197.504,108.367 202.25,109.404 204.624,106.883 C206.998,104.361 208.478,108.661 216.045,102.582 C215.6,104.36 221.087,102.582 221.087,102.582 C221.087,102.582 221.83,103.471 220.052,104.509 C221.83,104.807 223.906,104.657 224.263,105.735 C224.27,105.733 223.805,103.742 225.833,102.728 C227.172,103.769 230.137,101.097 230.732,100.355 C231.324,99.614 233.549,98.724 234.437,99.167 C235.327,99.613 238.592,97.24 240.52,97.687 C239.63,94.867 240.818,95.016 245.564,94.867 C247.049,93.531 249.719,93.829 249.719,93.829 C249.719,93.829 252.238,90.861 249.719,87.895 C247.194,84.927 246.603,79.885 245.118,81.961 C243.633,84.037 240.817,82.553 240.817,82.553 C240.817,82.553 238.886,92.047 233.696,84.927 C231.918,86.707 228.95,86.114 228.95,86.114 C228.95,86.114 229.69,83 227.466,80.332 C225.24,77.661 229.691,76.918 227.171,70.095 C225.832,70.984 224.202,69.5 224.202,69.5 L223.61,73.654 C223.61,73.654 219.008,76.326 219.898,69.945 C220.791,63.565 222.272,61.046 225.984,61.192 C229.69,61.343 225.984,56.445 225.984,56.445 C225.984,56.445 227.315,55.257 228.357,55.853 C229.392,54.517 230.579,46.805 228.357,46.359 C228.95,45.916 229.988,44.729 229.988,44.729 C229.988,44.729 232.658,42.65 228.06,42.799 C223.458,42.947 224.351,44.282 224.351,44.282 C224.351,44.282 222.272,41.611 224.797,41.016 C225.239,39.828 226.129,38.642 231.471,38.2 C236.809,37.754 229.544,37.013 239.184,35.083 C239.184,33.007 240.662,31.808 249.421,32.266 C255.057,32.564 253.424,29.893 253.871,26.928 C256.984,26.332 263.365,23.959 263.216,18.174 C263.068,12.39 264.849,14.465 264.551,11.348 C264.253,8.235 274.045,8.383 275.827,6.009 C276.862,7.94 280.868,8.681 280.868,8.681 C283.241,9.272 296.001,4.823 296.001,4.823 C296.001,4.823 301.043,7.494 305.495,4.228 C307.274,10.459 310.536,-1.111 317.362,4.823 C321.514,4.526 319.736,0.966 326.26,3.339 C326.26,3.339 333.084,3.637 334.569,3.042 C336.052,2.45 343.47,5.121 344.952,1.855 C346.436,-1.409 355.931,1.855 355.931,1.855 C355.931,1.855 349.7,6.307 357.713,6.009 L359.19,5.943 C366.146,5.56 369.054,4.433 365.722,3.042 C362.161,1.561 370.469,1.264 374.919,6.01 C377.589,6.603 382.635,5.712 382.635,5.712 C382.635,5.712 383.957,5.34 385.898,8.384 C387.973,11.647 387.676,0.374 391.832,5.121 C394.503,6.602 393.018,1.855 405.183,5.415 C417.345,8.976 408.744,13.428 408.744,13.428 L409.336,14.909 L407.558,17.58 C403.106,20.252 403.701,24.403 410.822,18.47 C414.381,23.514 411.118,11.944 426.249,18.767 C429.809,17.283 428.027,25.295 433.073,20.843 C433.073,20.843 432.48,24.998 439.302,22.922 C446.125,20.843 443.159,24.998 443.159,24.998 C443.159,24.998 448.202,22.625 450.873,23.811 C453.543,24.998 452.142,26.567 463.335,27.962 C468.081,28.558 463.335,31.82 459.774,31.523 C460.069,34.492 471.993,39.089 469.86,35.084 C467.486,30.634 468.97,30.634 472.233,36.271 C475.497,41.911 482.915,33.603 482.915,33.603 C482.915,33.603 487.661,37.457 486.475,39.831 C485.287,42.205 488.849,43.987 488.849,43.987 C493.298,42.205 502.185,48.883 487.07,47.547 C476.981,46.657 482.617,51.699 483.509,52.294 C484.399,52.886 490.332,46.952 490.925,57.339 C491.52,67.722 494.191,63.567 494.191,63.567 C494.191,63.567 501.311,60.9 500.419,67.722 C499.529,74.545 498.642,76.919 506.059,83.15 C513.473,89.381 502.498,90.568 500.419,88.786 C498.343,87.008 490.631,86.71 488.258,88.489 C485.883,90.27 487.365,86.116 490.631,85.822 C493.894,85.524 491.521,81.369 497.156,79.59 C502.793,77.809 489.738,73.954 487.662,75.436 C485.587,76.92 476.981,72.768 468.972,74.843 L467.784,73.062 C467.784,73.062 462.443,73.36 462.741,74.843 C463.038,76.328 454.731,73.656 451.469,77.809 C448.203,81.964 454.433,88.196 451.469,91.458 C455.917,93.236 458.291,100.952 457.403,104.512 C456.51,108.073 463.63,107.478 463.63,107.478 C463.63,107.478 467.191,108.665 463.337,114.598 C467.191,116.082 465.71,123.5 464.525,125.874 C463.337,128.247 468.084,131.51 466.898,134.772 C465.71,138.038 472.832,138.038 472.832,138.038 C472.832,138.038 475.797,145.75 478.17,147.826 C480.544,149.905 486.209,144.81 485.29,136.554 C484.994,133.883 489.74,137.444 489.74,137.444 C489.74,137.444 495.38,142.191 494.785,144.862 C494.193,147.533 493.006,150.796 489.446,148.423 C487.962,154.06 488.851,161.774 495.38,160.29 C495.081,157.027 498.048,157.619 498.048,157.619 C498.048,157.619 492.399,152.723 503.688,155.543 C509.622,157.027 506.061,150.201 509.324,144.268 C512.587,138.333 514.96,136.555 507.542,136.852 C500.128,137.147 498.377,131.415 497.755,129.435 C495.972,123.798 496.73,133.682 488.554,121.425 C485.59,116.972 490.456,119.08 484.7,114.599 C482.029,112.523 487.665,105.7 487.665,105.7 C487.665,105.7 484.7,100.954 479.357,103.327 C474.018,105.7 478.17,98.282 479.357,98.58 C480.545,98.878 484.7,100.064 486.775,98.58 C488.852,97.096 491.225,101.251 491.225,101.251 C491.225,101.251 489.513,117.619 498.048,115.786 C502.202,114.896 501.904,125.28 508.434,117.27 L511.399,117.27 C511.399,117.27 512.587,112.821 514.663,113.709 C516.742,114.599 516.445,107.479 515.556,105.699 C514.663,103.918 525.775,105.892 521.49,118.754 C519.709,124.093 513.182,123.501 513.182,123.501 L516.743,129.731 C520.005,139.225 525.05,140.412 523.267,151.387 C522.856,153.909 517.037,154.653 517.037,154.653 C517.037,154.653 516.446,161.476 508.138,161.179 C499.83,160.882 503.094,163.254 501.907,163.552 C500.721,163.849 502.205,170.081 499.534,170.374 C496.864,170.672 496.864,181.353 489.15,172.748 C481.436,164.146 486.48,184.913 490.04,180.463 C493.601,176.015 491.525,188.771 493.009,185.803 C494.489,182.837 493.899,196.781 483.81,197.376 C473.725,197.967 485.293,204.79 487.667,204.199 C490.04,203.603 490.636,206.87 477.876,206.572 C465.119,206.274 467.789,219.924 479.954,215.768 C492.116,211.616 485.888,216.955 485.888,216.955 L488.556,219.031 C488.556,219.031 487.515,219.48 487.294,220.888 C487.075,222.296 491.228,224.372 492.116,224.964 C493.009,225.56 496.864,233.271 495.973,235.351 C495.083,237.427 500.721,244.845 479.359,240.392 C476.986,243.953 464.821,240.987 464.821,240.987 C464.821,240.987 468.657,245.611 458.592,246.326 C454.437,246.624 464.229,248.108 465.118,254.93 C466.008,261.753 468.975,262.94 468.975,262.94 L468.678,272.732 C468.678,272.732 471.051,278.369 480.247,275.403 C480.247,281.337 484.402,286.381 494.194,278.964 L500.128,278.964 C500.128,278.964 498.94,273.621 508.435,273.621 C509.623,271.248 506.654,269.767 510.213,265.909 C513.775,262.052 503.391,259.381 514.96,251.668 C526.53,243.953 510.213,249.887 519.115,238.614 C517.036,235.351 511.995,222.591 525.049,230.898 C525.344,226.151 526.237,217.252 527.423,217.252 C528.609,217.252 541.411,212.214 540.477,224.372 C540.18,228.229 546.114,222.59 553.532,231.493 C559.761,231.195 567.178,234.458 567.178,234.458 C567.178,234.458 565.158,240.382 566.587,247.512 C567.178,250.481 561.244,248.699 561.244,248.699 C559.761,256.415 570.738,253.152 573.706,252.854 C576.672,252.557 570.147,245.734 570.147,245.734 C568.959,240.097 581.122,235.053 569.551,230.306 C569.551,230.306 580.826,226.449 564.213,224.964 C549.721,223.673 555.012,220.217 555.012,220.217 C555.012,220.217 546.114,220.514 545.225,212.505 C535.134,212.207 539.291,195.002 550.564,209.536 C561.838,224.074 550.564,205.976 564.213,216.065 C568.661,216.065 576.671,218.736 577.266,220.811 C577.858,222.887 578.748,229.12 578.748,229.12 C578.748,229.12 583.199,227.337 583.494,230.897 C583.791,234.458 592.988,238.315 594.174,236.831 C595.362,235.351 602.081,243.034 597.442,232.977 C595.659,229.121 599.815,229.121 599.815,229.121 C602.188,223.483 591.508,228.23 590.913,222 C590.321,215.769 589.725,211.318 589.725,211.318 C589.725,211.318 595.068,208.945 595.362,211.318 C597.442,209.537 594.473,196.188 590.321,198.264 C586.166,200.34 595.068,192.033 586.76,188.77 C588.24,184.023 581.716,184.616 583.791,178.682 C579.044,176.903 580.528,172.453 583.199,172.453 C582.013,169.782 586.76,168.595 586.76,168.595 C586.76,168.595 587.65,163.253 591.508,165.034 C590.32,160.88 590.023,153.167 592.099,153.76 C594.174,154.355 594.473,156.133 594.473,156.133 C594.473,156.133 597.437,158.807 594.324,162.811 C591.211,166.814 596.846,166.52 596.846,166.52 C596.846,166.52 602.78,165.925 604.561,168.595 C608.122,166.52 611.086,168.595 611.086,168.595 C611.086,168.595 613.162,172.453 618.207,173.045 C623.252,173.64 620.359,185.356 612.868,186.396 C602.187,187.881 608.416,194.11 605.748,197.375 C603.077,200.638 597.441,197.077 598.627,216.656 C600.704,222.59 605.45,222.296 605.45,224.67 C605.45,227.043 603.966,225.56 603.966,225.56 C603.966,225.56 603.669,230.604 610.494,233.867 C617.319,237.13 616.723,233.569 618.207,232.68 C619.69,231.79 617.317,228.823 621.47,228.823 C620.878,225.56 623.252,219.031 625.031,221.11 C628,217.253 629.777,231.196 631.262,227.933 C632.745,224.67 630.669,219.031 630.669,219.031 C630.669,219.031 632.745,215.768 639.568,230.306 C638.678,237.129 649.062,245.734 640.756,246.92 C632.449,248.108 645.204,253.446 631.857,255.228 C629.186,259.975 624.141,257.006 624.141,257.006 C624.141,257.006 626.514,262.646 610.495,259.975 C610.199,266.5 598.332,263.238 602.78,266.5 C607.229,269.767 600.109,269.767 603.376,280.741 C598.923,282.225 586.463,281.336 585.573,280.741 C584.682,280.148 584.387,272.731 577.858,279.851 C572.52,278.962 568.232,279.607 565.399,280.741 C559.465,283.114 563.915,273.326 562.431,271.842 C560.946,270.358 565.642,260.396 560.651,261.161 C552.937,262.348 550.861,258.787 547.3,261.753 C543.74,264.721 533.948,268.281 532.17,268.281 C530.388,274.512 523.267,279.26 520.894,279.553 C520.894,285.784 510.213,286.082 510.213,286.082 C510.213,286.082 510.808,292.904 503.689,293.202 C496.568,293.5 504.28,298.838 486.776,295.873 C486.181,304.181 478.469,307.145 477.282,310.114 C476.096,313.08 486.78,340.969 459.481,340.969 C457.998,340.969 461.854,343.342 461.854,343.342 C461.854,343.342 462.745,347.196 459.779,349.571 C456.811,351.944 459.184,360.846 453.548,364.704 C447.912,368.559 442.569,395.853 454.736,402.68 C457.109,398.822 460.67,407.721 454.736,413.362 C449.988,412.174 448.802,415.735 448.802,418.998 C448.802,422.261 442.867,425.229 442.867,425.229 C447.614,428.789 440.75,430.147 447.614,434.722 C450.285,436.5 439.605,444.216 451.175,444.51 C462.745,444.809 464.528,450.15 464.528,450.15 C464.528,450.15 466.305,453.414 467.789,453.711 C469.274,454.005 466.901,456.084 466.901,456.084 L467.194,459.348 C467.194,459.348 476.097,456.974 477.581,473.588 C479.063,490.202 495.084,477.445 495.084,477.445 C495.084,477.445 501.61,502.367 514.072,486.939 C520.895,485.455 533.06,488.127 533.06,488.127 C533.06,488.127 536.621,484.859 536.621,482.486 C536.621,480.113 540.478,479.818 541.368,482.784 C542.257,485.752 547.634,479.914 547.634,479.914 C547.634,479.914 550.895,464.332 567.046,461.246 L570.149,459.348 C570.149,459.348 573.756,463.73 573.139,465.544 C572.522,467.356 575.569,464.949 575.569,464.949 C575.569,464.949 580.43,474.226 581.668,472.72 C582.904,471.215 587.593,461.509 588.956,469.775 C590.618,470.028 592.991,472.402 593.288,473.885 C593.586,475.366 595.661,473.588 595.661,473.588 C593.884,468.841 599.222,459.939 601.004,477.74 C602.782,495.541 595.364,485.455 600.111,499.399 C606.342,497.619 606.342,503.554 606.342,503.554 C606.342,503.554 614.352,507.115 609.902,510.078 C605.453,513.048 615.245,517.794 609.605,532.626 C618.507,535 617.027,541.481 607.231,540.935 C601.892,540.637 604.267,556.363 597.738,561.109 C599.519,567.043 587.652,574.461 596.551,580.097 C594.176,585.438 595.07,591.964 595.07,591.964 C595.07,591.964 590.025,594.337 590.618,608.578 C584.684,612.436 586.465,618.961 587.057,620.445 C591.51,621.041 601.297,611.249 603.377,606.502 C605.452,601.755 605.154,608.578 611.088,600.865 C617.022,593.151 619.397,592.558 621.178,592.261 C622.955,591.964 624.738,589.591 625.925,583.36 C631.562,581.88 631.264,577.724 633.935,575.052 C636.605,572.385 641.944,566.744 644.319,565.559 C646.692,564.371 645.207,560.219 645.207,560.219 C645.207,560.219 648.473,556.363 649.955,557.251 C651.438,558.143 653.516,548.649 652.033,545.979 C650.55,543.308 659.745,543.606 659.745,543.606 C659.745,543.606 658.559,540.637 661.527,541.233 C660.634,534.112 669.24,531.441 665.382,521.947 C670.426,522.541 668.053,512.156 674.581,512.156 C676.359,508.595 675.471,502.069 674.283,500.883 C679.031,501.773 683.182,494.354 684.965,491.686 C686.743,489.016 700.984,464.094 692.677,455.49 C695.347,443.031 694.457,436.8 693.863,435.315 C693.272,433.832 704.004,424.849 700.984,412.767 C699.206,405.647 704.545,403.869 706.918,394.965 C709.292,386.066 702.172,391.703 707.513,380.725 C712.852,369.747 705.732,372.418 705.732,372.418 C705.732,372.418 707.811,362.626 710.479,361.737 C713.151,360.847 707.513,352.243 707.513,352.243 C707.513,352.243 706.918,347.198 709.589,346.607 C712.261,346.011 709.589,337.113 707.217,336.517 C709.589,334.144 708.7,327.321 707.811,324.058 C706.918,320.795 710.776,313.675 707.217,312.783 C704.25,316.049 706.918,318.423 705.438,322.872 C703.955,327.321 707.217,334.442 700.691,335.927 C694.163,337.41 696.536,328.509 696.536,328.509 C696.536,328.509 696.239,323.464 693.273,323.761 C690.305,324.059 690.602,320.499 690.602,320.499 C690.602,320.499 685.557,324.356 685.855,318.423 C686.152,312.489 684.667,308.036 684.667,308.036 C684.667,308.036 681.405,308.333 679.328,305.071 C674.284,305.071 676.36,296.763 676.36,296.763 C676.36,296.763 671.911,294.39 671.614,290.829 C668.941,292.904 662.715,283.411 663.902,281.927 C665.088,280.446 656.781,278.962 656.186,275.699 C655.593,272.432 650.847,268.578 649.065,268.28 C647.287,267.983 648.472,255.226 648.472,255.226 C648.472,255.226 653.515,256.71 652.625,263.533 C653.515,267.391 658.855,265.017 658.855,265.017 C658.855,265.017 654.53,267.461 664.789,269.169 C668.35,269.765 668.35,275.4 668.35,275.4 L672.208,275.4 C672.208,275.4 675.173,284.894 674.581,288.752 C677.547,291.126 680.81,289.939 680.81,289.939 C680.81,289.939 680.81,294.389 684.076,296.762 C687.339,299.135 688.228,302.696 688.228,303.882 C688.228,305.07 695.645,304.18 695.943,307.74 C696.238,311.3 694.756,314.86 698.316,318.123 C697.13,322.275 700.984,326.133 701.281,318.421 C701.579,310.705 699.798,304.771 703.954,302.398 C706.624,296.762 702.766,295.576 703.954,289.939 C705.14,284.3 703.954,267.391 697.131,266.499 C695.943,261.457 697.131,245.137 694.162,242.764 C691.197,240.391 692.383,236.239 692.383,236.239 C692.383,236.239 687.041,232.084 688.229,230.305 C689.416,228.524 683.779,217.251 684.372,229.71 C682.296,229.71 685.855,233.27 685.855,233.27 C685.855,233.27 681.997,234.755 682.295,238.613 C678.733,235.35 683.482,231.79 674.582,232.382 C670.427,229.12 675.174,220.812 670.427,221.403 C665.681,221.999 663.307,221.701 664.493,214.878 C665.681,208.056 668.648,217.252 668.648,217.252 C668.648,217.252 672.209,217.252 674.877,219.328 C677.548,221.403 685.855,217.252 680.218,213.989 C680.218,213.989 684.371,208.349 680.811,207.46 C677.25,206.571 679.329,202.121 675.472,199.748 C678.143,199.45 677.845,194.406 677.845,194.406 L679.152,192.865 C702.911,241.025 716.274,295.305 716.274,352.715 C716.264,551.465 556.074,712.645 358.484,712.645 L358.49,712.71 Z M399.7,97.68 C399.849,98.569 398.365,98.717 397.327,99.16 C396.289,99.606 395.698,102.426 398.365,102.721 C399.404,104.06 403.379,103.642 403.379,103.642 C403.379,103.642 404.006,101.981 402.075,101.981 C402.222,101.535 400.739,100.943 400.53,100.616 C400.31,100.286 400.88,98.566 399.69,97.676 L399.7,97.68 Z M405.4,98.07 C406.675,98.13 400.59,99.139 405.935,99.671 C406.526,100.504 408.811,100.532 409.673,99.849 C410.533,99.165 409.789,97.089 408.754,97.536 C407.713,97.979 406.289,97.002 406.289,97.002 L405.389,98.062 L405.4,98.07 Z M406.82,103.46 C405.337,103.903 404.941,104.261 405.437,105.271 C405.931,106.278 407.427,104.796 408.757,105.983 C410.077,107.173 410.077,103.463 406.817,103.463 L406.82,103.46 Z M419.23,145.94 C417.452,146.927 420.019,148.306 421.205,147.519 C422.395,146.739 421.405,145.939 419.235,145.939 L419.23,145.94 Z M444.8,142.93 C443.169,143.819 445.987,144.707 446.73,144.707 C447.47,144.707 447.323,142.78 447.323,142.78 C447.323,142.78 445.983,143.37 444.803,142.93 L444.8,142.93 Z M444.06,151.68 C442.725,152.423 444.652,153.461 445.545,152.867 C446.435,152.267 445.695,151.677 444.065,151.677 L444.06,151.68 Z M378.05,90.437 C378.468,90.614 378.854,90.643 379.091,90.471 C379.63,90.076 380.719,89.865 380.34,89.157 C380.888,88.197 380.113,87.149 380.113,87.149 C380.113,87.149 385.306,79.582 376.998,76.022 C379.371,74.834 382.932,70.679 379.52,65.193 C379.52,65.193 382.34,64.154 381.005,58.667 C389.754,53.771 388.274,51.101 375.219,58.813 C379.965,54.067 369.876,55.848 365.725,57.626 C361.57,59.407 348.515,57.626 356.972,54.81 C365.425,51.994 361.57,48.728 351.335,51.844 C341.097,54.958 341.396,52.287 339.913,52.879 C338.43,53.474 330.122,50.506 329.527,47.54 C328.936,44.572 320.628,43.98 316.993,48.803 C315.729,45.91 304.014,52.287 304.014,58.221 C289.772,60.595 290.959,62.968 294.52,63.56 C301.639,62.373 317.067,67.121 302.082,66.974 C287.099,66.827 302.826,70.68 307.425,72.612 C315.58,71.573 318.106,77.656 318.106,77.656 C318.106,77.656 314.694,81.362 320.033,86.109 C312.321,90.263 318.255,91.451 318.255,94.417 C318.255,97.385 315.287,102.132 313.951,102.876 C313.805,103.318 311.431,103.616 313.211,102.132 C314.992,101.537 312.023,97.087 309.799,97.533 C302.252,99.05 307.573,107.471 312.467,107.917 C317.363,108.363 315.287,114.591 311.134,112.218 C306.98,109.844 301.64,115.778 305.644,119.193 C300.748,117.857 301.64,127.054 305.053,131.358 C301.34,137.44 304.606,146.042 309.354,146.633 C314.1,147.228 314.1,147.82 316.623,154.497 C319.142,161.175 327.75,154.349 327.155,147.819 C326.562,141.294 333.385,137.436 332.497,138.325 C332.497,138.325 338.431,135.952 334.871,135.36 C331.31,134.765 334.871,128.832 334.871,128.832 L341.396,129.427 C348.515,134.766 350.741,123.344 350.741,123.344 C350.741,123.344 359.792,122.898 359.937,117.708 C360.085,112.518 369.286,116.373 373.586,112.664 C377.887,108.958 382.931,99.758 378.925,95.755 C374.919,99.464 368.098,90.857 375.364,90.711 C376.474,90.691 377.354,90.592 378.044,90.442 L378.05,90.437 Z M443.11,147.58 C443.45,148.382 443.337,149.409 442.995,149.526 C442.65,149.64 445.393,149.868 444.824,148.725 C444.254,147.575 443.904,146.895 443.104,147.575 L443.11,147.58 Z M365.71,43.54 C366.374,45.441 368.827,46.859 369.732,46.201 C370.636,45.546 372.624,45.242 371.04,43.735 C369.65,42.413 364.52,41.312 365.71,43.54 Z M461.41,127.937 C461.855,128.978 461.708,130.31 461.261,130.459 C460.816,130.607 464.376,130.904 463.634,129.421 C462.894,127.941 462.454,127.051 461.414,127.941 L461.41,127.937 Z M487.5,165.327 C488.161,167.225 490.613,168.644 491.521,167.985 C492.426,167.331 494.411,167.03 492.825,165.523 C491.445,164.203 486.315,163.103 487.505,165.323 L487.5,165.327 Z M476.58,160.437 C476.431,160.574 476.251,160.681 476.165,160.876 C476.361,161.456 476.405,162.158 476.876,162.62 C476.657,162.804 476.381,162.921 476.286,163.218 C476.225,163.49 476.106,163.849 476.408,164.048 C476.998,163.924 477.653,163.691 478.223,163.969 C478.647,163.538 479.394,163.531 479.394,163.531 C480.236,163.045 480.169,162.031 479.832,161.25 L480.119,160.737 C479.787,159.538 479.248,158.326 478.979,157.066 L478.511,156.55 C478.375,156.562 478.237,156.584 478.157,156.432 C477.772,156.939 477.208,156.663 476.843,156.372 C476.487,156.445 476.11,156.597 475.924,156.955 C476.362,157.461 476.674,157.875 476.414,158.345 C476.153,158.812 476.361,159.385 476.571,159.641 C476.761,159.911 475.751,160.041 476.571,160.441 L476.58,160.437 Z M451.47,156.417 C451.47,156.417 447.017,158.938 447.909,159.385 C448.799,159.831 452.655,161.018 448.943,161.611 C445.237,162.206 450.13,164.132 451.172,164.132 C452.21,164.132 453.396,166.208 453.545,167.395 C451.023,169.326 457.846,170.214 457.696,170.658 C457.549,171.104 456.51,174.515 456.51,174.515 C456.51,174.515 457.696,173.92 458.291,175.108 C458.883,176.295 458.588,176.889 458.588,176.889 C458.588,176.889 461.554,175.108 461.256,175.405 C460.961,175.703 460.516,177.038 460.665,178.076 C461.703,177.928 461.851,179.56 460.961,181.785 C458.291,184.307 459.775,185.048 460.961,185.048 C460.811,186.532 459.921,190.391 462.741,188.905 C465.556,187.422 466.744,188.757 464.076,191.279 C461.405,193.801 465.114,193.355 465.556,194.839 C464.816,197.656 469.861,196.916 470.456,194.989 C472.382,197.51 472.382,192.317 473.42,192.317 C474.458,192.317 476.683,192.317 477.425,191.279 C478.167,190.241 478.763,190.241 479.653,190.092 C480.542,189.943 483.509,190.39 485.288,187.867 C487.07,185.345 481.728,180.746 481.728,180.746 C481.728,180.746 475.943,181.636 476.39,178.819 C476.832,176 471.787,176.445 471.49,175.552 C471.197,174.663 469.415,171.401 466.598,171.251 C465.261,168.878 462.443,171.251 462.741,167.245 C463.038,163.238 462.295,163.093 461.553,162.944 C460.81,162.796 459.327,161.906 458.882,159.976 C460.365,156.564 457.402,156.564 457.104,156.712 C456.807,156.86 456.36,163.237 455.027,156.86 C453.707,150.5 451.637,155.84 451.487,156.43 L451.47,156.417 Z M603.86,241.797 C602.352,241.803 602.782,244.848 603.693,243.962 C604.599,243.075 605.861,245.31 605.861,245.31 L606.993,245.674 C606.993,245.674 608.073,242.622 608.346,244.623 C608.621,246.616 610.133,246.607 610.384,245.565 C611.852,245.733 612.051,242.473 612.051,242.473 C612.051,242.473 609.827,243.043 608.982,241.736 C608.132,240.446 605.122,242.846 603.862,241.806 L603.86,241.797 Z M585.28,257.737 C583.348,258.034 584.833,260.408 585.722,259.518 C586.611,258.626 588.911,260.183 588.911,260.183 L590.469,260.259 C590.469,260.259 590.915,257.587 591.88,259.148 C592.843,260.705 594.772,260.408 594.772,259.518 C596.7,259.367 595.96,256.699 595.96,256.699 C595.96,256.699 593.289,257.588 591.806,256.699 C590.316,255.809 587.196,258.339 585.276,257.739 L585.28,257.737 Z M591.06,250.617 C590.121,250.617 590.32,252.399 591.507,252.247 C592.697,252.107 594.617,250.617 591.057,250.617 L591.06,250.617 Z M583.2,249.727 C583.644,250.765 583.495,252.1 583.05,252.246 C582.607,252.398 586.166,252.692 585.423,251.211 C584.683,249.721 584.243,248.831 583.203,249.721 L583.2,249.727 Z M546.84,253.297 C547.311,254.652 546.986,255.374 547.088,255.441 C547.129,255.468 547.24,255.388 547.501,255.2 C548.406,254.545 553.752,255.001 552.166,253.494 C550.786,252.184 545.656,251.074 546.846,253.304 L546.84,253.297 Z M526.24,254.917 C527.768,254.383 526.05,252.408 527.388,252.797 C528.726,253.19 527.367,251.259 526.439,251.068 C525.509,250.878 524.539,254.488 526.239,254.918 L526.24,254.917 Z M404.3,436.197 C402.668,436.494 404.007,441.241 406.082,440.054 C408.157,438.866 406.822,436.643 408.602,436.643 C410.383,436.643 412.608,435.604 409.643,435.009 C406.673,434.409 404.453,437.529 404.303,436.189 L404.3,436.197 Z M398.96,420.027 C397.327,419.137 397.477,422.106 396.587,423.735 C393.767,425.666 396.142,428.928 396.289,427.296 C396.438,425.666 398.812,425.071 398.663,423.439 C404.453,417.659 399.263,419.579 398.963,420.029 L398.96,420.027 Z M413.34,427.737 C414.159,428.927 415.479,429.507 417.027,428.697 C417.539,426.965 417.539,425.272 416.815,424.139 C415.76,423.639 414.602,424.598 413.428,424.728 L412.777,427.164 L413.337,427.734 L413.34,427.737 Z M431.6,314.587 C433.743,314.1 432.854,319.79 435.267,317.511 C437.677,315.241 435.237,312.111 431.597,314.591 L431.6,314.587 Z M424,303.257 C424.474,305.182 426.209,306.611 426.849,305.947 C427.488,305.285 428.894,304.981 427.773,303.456 C426.793,302.116 423.163,301.006 424.003,303.256 L424,303.257 Z M430.73,294.407 C432.917,293.641 430.459,290.818 432.374,291.379 C434.284,291.937 432.341,289.176 431.018,288.904 C429.698,288.634 428.308,293.794 430.738,294.414 L430.73,294.407 Z M439.05,306.277 C439.213,308.343 441.286,309.526 442.358,308.605 C443.426,307.688 445.477,306.982 444.295,305.54 C443.245,304.27 438.435,303.94 439.045,306.28 L439.05,306.277 Z M177.91,426.887 C176.858,427.229 178.96,428.182 180.445,429.223 C181.925,430.258 179.55,431.891 176.905,432.545 C174.257,433.201 175.992,436.344 176.735,435.748 C177.475,435.156 177.921,435.451 178.516,435.451 C179.108,435.451 183.113,436.786 183.113,434.858 C183.113,432.927 185.484,432.485 186.957,431.457 C188.423,430.432 188.603,428.182 188.463,426.887 C188.324,425.596 186.672,423.732 185.95,424.713 C185.223,425.692 182.078,425.364 181.183,425.809 C180.303,426.249 179.263,426.689 177.913,426.879 L177.91,426.887 Z M156.86,425.807 C156.86,427.29 159.085,426.401 158.343,427.44 C157.599,428.478 159.674,427.883 160.122,427.141 C160.572,426.411 157.752,424.481 156.862,425.811 L156.86,425.807 Z M166.21,412.167 C167.547,412.612 165.173,415.43 167.251,414.987 C169.321,414.537 169.031,412.017 166.211,412.167 L166.21,412.167 Z M164.14,418.967 C163.426,417.666 161.902,419.514 162.054,418.249 C162.205,416.978 160.67,418.498 160.637,419.363 C160.607,420.233 164.007,420.573 164.147,418.973 L164.14,418.967 Z M168.43,406.827 C168.048,408.04 168.527,409.395 169.094,409.245 C169.667,409.093 170.535,409.392 170.428,408.187 C170.348,407.127 168.728,405.317 168.438,406.827 L168.43,406.827 Z M166.53,399.927 C167.981,400.235 167.571,397.873 168.434,398.813 C169.294,399.757 169.147,397.601 168.514,397.013 C167.884,396.423 165.414,398.773 166.534,399.923 L166.53,399.927 Z M158.35,380.717 C158.35,382.2 160.573,381.312 159.83,382.35 C159.091,383.388 161.167,382.792 161.612,382.052 C162.052,381.312 159.242,379.382 158.352,380.722 L158.35,380.717 Z M162.2,386.207 C161.609,387.395 162.348,388.726 163.239,388.58 C164.128,388.433 165.485,388.726 165.315,387.54 C165.165,386.5 162.645,384.72 162.195,386.21 L162.2,386.207 Z M122.68,338.917 C123.05,337.55 124.069,338.31 124.715,338.917 C125.36,339.527 124.762,337.091 124.762,337.091 C124.762,337.091 124.715,335.569 123.142,336.787 C121.562,338.007 122.492,339.587 122.672,338.917 L122.68,338.917 Z M125.38,346.377 C126.329,346.187 125.978,345.523 125.851,344.857 C125.725,344.19 124.515,345.108 124.797,345.159 C125.075,345.209 125.417,345.535 125.256,345.706 C125.096,345.886 124.826,346.506 125.376,346.376 L125.38,346.377 Z M119.93,329.097 C119.036,329.689 120.223,330.136 120.669,330.136 C121.115,330.136 121.115,331.025 120.818,331.471 C120.52,331.917 123.339,331.471 122.596,330.434 C121.846,329.384 121.406,328.054 119.926,329.094 L119.93,329.097 Z M114.88,318.857 C116.063,317.521 119.33,318.261 121.405,318.857 C123.481,319.452 121.557,317.075 121.557,317.075 C121.557,317.075 121.405,315.591 116.363,316.777 C111.323,317.967 114.303,319.507 114.883,318.857 L114.88,318.857 Z M274.05,214.567 C273.307,213.084 273.307,217.387 273.307,218.128 C273.307,218.872 272.119,218.277 272.119,219.761 C272.119,220.093 275.268,221.819 274.939,219.761 C274.346,216.053 275.977,217.536 276.572,215.904 C277.802,212.544 274.652,213.544 274.052,214.574 L274.05,214.567 Z M228.07,105.837 C227.181,105.985 227.772,107.764 228.81,107.32 C229.849,106.875 231.035,106.28 231.482,107.022 C231.927,107.763 231.482,104.947 229.7,105.389 C228.82,105.609 228.66,106.429 228.07,105.839 L228.07,105.837 Z M256.55,96.427 C256.612,96.07 256.253,95.952 255.839,96.129 C255.662,96.129 255.662,96.427 255.662,96.781 C255.662,97.151 256.312,96.971 256.552,96.431 L256.55,96.427 Z M264.41,94.117 C264.559,93.224 263.67,92.93 262.63,93.377 C262.186,93.377 262.186,94.117 262.186,95.007 C262.186,95.897 263.816,95.457 264.406,94.117 L264.41,94.117 Z M236.23,59.85 C232.668,59.408 234.151,61.629 235.635,61.927 C234.891,62.074 235.489,63.854 236.23,65.04 C236.97,66.228 235.933,67.86 235.337,69.344 C234.742,70.828 233.116,67.563 233.116,66.525 C233.116,65.487 228.811,65.041 229.701,66.673 C230.59,68.307 228.961,71.271 230.146,72.161 C229.701,76.464 231.184,76.167 231.928,78.391 C232.668,80.617 238.454,83.584 239.049,80.467 C239.64,77.353 243.643,79.429 243.643,77.204 C243.643,74.979 246.168,75.868 247.059,73.793 C247.949,71.717 248.096,73.941 249.134,70.675 C250.172,67.413 246.761,66.374 246.314,67.86 C245.872,69.343 244.831,71.717 242.755,71.42 C243.938,69.79 243.498,68.009 243.35,67.86 C243.198,67.714 241.27,70.233 241.27,68.302 C242.755,64.15 240.38,63.113 240.38,63.113 L240.38,62.223 C240.38,62.223 242.609,63.261 241.716,60.739 C240.806,58.217 237.986,59.107 236.216,59.85 L236.23,59.85 Z M254.77,58.367 C254.77,58.367 252.993,58.664 253.435,59.404 C253.882,60.148 255.51,61.037 253.435,61.481 C251.36,61.927 253.435,63.556 253.435,63.556 L255.366,62.816 C255.366,62.816 256.256,61.927 257.591,63.114 C258.927,64.301 260.704,61.481 259.224,61.037 C257.74,60.592 258.331,60.89 257.444,58.516 C256.544,56.141 254.764,57.329 254.764,58.367 L254.77,58.367 Z M275.98,46.796 C273.014,46.796 270.79,48.872 274.052,51.245 C276.425,51.543 275.977,52.435 275.387,53.027 C274.792,53.619 275.387,54.657 275.387,54.657 C275.387,54.657 272.419,55.993 271.531,57.03 C270.641,58.068 272.417,58.22 273.904,57.476 L273.904,59.701 C273.904,59.701 271.382,61.483 270.343,60.441 C269.306,59.403 268.859,62.074 270.343,62.815 C271.828,63.555 275.235,63.116 277.165,61.926 C278.649,62.815 282.359,63.261 282.359,63.261 C282.359,63.261 285.328,67.413 286.659,62.815 C287.996,58.216 286.808,58.961 286.808,58.961 C286.808,58.961 289.033,54.508 285.918,53.916 C282.802,53.321 289.33,52.58 289.33,52.58 L289.478,50.947 C289.478,50.947 290.368,47.986 291.703,47.982 C293.039,47.982 291.849,42.345 287.253,43.827 C282.655,45.311 281.023,44.568 281.023,44.568 C281.023,44.568 277.612,45.311 279.242,46.201 C280.902,47.094 276.002,46.796 276.002,46.796 L275.98,46.796 Z M236.82,55.546 C236.524,54.657 238.752,54.508 240.084,55.546 C240.828,55.248 240.53,53.47 240.977,52.433 C241.423,51.395 240.829,50.357 240.531,50.948 C240.236,51.544 238.898,51.689 238.158,51.841 C237.711,52.284 236.081,53.322 234.597,53.174 C231.487,53.173 235.937,54.806 236.827,55.546 L236.82,55.546 Z M250.32,47.686 C245.721,46.052 247.202,47.686 245.721,48.28 C243.793,50.801 247.648,49.468 247.648,50.357 C247.648,51.246 246.461,50.948 247.5,51.84 C248.542,52.73 251.95,50.653 250.32,50.357 C248.69,50.059 250.32,48.724 250.32,47.686 Z M267.38,53.47 C267.119,53.724 266.736,53.752 266.351,53.771 C266.279,54.152 266.598,54.467 266.763,54.829 C267.275,54.939 267.693,54.569 268.206,54.677 C268.439,54.389 269.249,54.234 269.027,53.772 C268.547,53.483 267.947,53.512 267.387,53.47 L267.38,53.47 Z M259.52,31.96 C257.445,31.96 259.52,34.333 260.413,34.333 C261.302,34.333 260.855,35.52 262.634,35.817 C264.416,36.115 263.676,33.146 263.081,33.444 C262.481,33.743 261.721,31.96 259.521,31.96 L259.52,31.96 Z M459.78,52.58 C463.932,52.283 466.901,52.875 468.087,52.875 C469.275,52.875 471.942,51.986 472.835,52.875 C473.725,53.768 477.578,46.944 470.606,47.982 C463.633,49.02 465.119,49.02 463.043,47.536 C460.966,46.052 459.482,43.679 457.7,43.976 C455.922,44.273 452.659,41.9 453.252,40.415 C453.847,38.931 447.913,39.525 446.429,38.633 C444.946,37.744 441.98,32.997 440.198,32.699 C439.012,35.371 441.682,40.415 446.429,40.712 C447.319,44.865 452.954,49.02 454.438,49.02 C455.908,49.021 459.768,52.58 459.768,52.58 L459.78,52.58 Z M410.23,32.407 C401.922,41.603 411.713,34.78 411.417,38.044 C411.122,41.307 415.572,38.341 415.274,40.417 C416.164,44.867 424.47,39.821 421.802,39.23 C419.132,38.634 417.945,33.296 418.834,31.514 C417.054,29.736 414.384,30.922 410.224,32.407 L410.23,32.407 Z M400.44,52.284 C398.36,54.361 400.734,60.592 403.405,60.295 C406.076,59.997 410.228,58.81 410.228,58.81 C410.228,58.81 412.307,62.965 410.228,64.152 C408.151,65.339 402.12,64.82 409.934,67.713 C417.943,70.678 420.02,69.789 420.615,68.305 C421.206,66.825 423.877,61.78 425.361,62.076 C426.549,59.405 421.206,57.032 424.174,55.25 C427.139,53.472 424.766,46.943 424.766,46.943 C424.766,46.943 420.615,47.241 418.832,50.209 C417.053,53.175 414.68,49.912 412.898,49.912 C412.6,51.69 411.414,53.175 411.414,53.175 L410.227,50.504 C410.227,50.502 401.917,50.207 400.437,52.284 L400.44,52.284 Z M385.61,121.707 C382.347,118.444 380.863,121.707 383.533,126.16 C379.676,125.267 377.005,128.533 380.27,128.533 C383.533,128.533 392.137,132.094 384.422,132.094 C376.711,132.094 383.83,136.246 386.796,135.948 C389.764,135.654 389.764,135.356 391.841,136.246 C393.916,137.135 398.072,135.356 398.072,135.356 C398.072,135.356 399.552,130.311 403.708,129.719 C405.486,122.599 398.663,119.333 396.885,119.929 C395.104,120.52 395.4,122.004 393.324,122.599 C391.234,123.199 387.504,123.619 385.604,121.719 L385.61,121.707 Z M229.85,59.997 C229.662,60.247 229.387,60.275 229.11,60.295 C229.055,60.667 229.287,60.979 229.404,61.335 C229.774,61.443 230.078,61.079 230.445,61.184 C230.614,60.903 231.199,60.75 231.037,60.295 C230.687,60.005 230.267,60.038 229.857,59.997 L229.85,59.997 Z M250.32,38.634 C250.133,38.884 249.858,38.913 249.575,38.932 C249.525,39.306 249.757,39.616 249.873,39.973 C250.244,40.081 250.544,39.717 250.915,39.821 C251.083,39.541 251.665,39.388 251.506,38.932 C251.156,38.644 250.726,38.675 250.316,38.634 L250.32,38.634 Z M244.53,39.973 C243.869,39.657 243.138,39.6 242.452,39.378 C242.024,41.087 240.411,40.371 239.189,40.268 C238.791,40.983 238.436,40.534 237.704,40.566 C236.518,41.167 236.021,41.974 236.518,43.236 C237.29,44.037 237.264,45.062 238.001,45.907 C239.268,45.319 239.995,43.952 239.783,42.641 C240.957,43.305 241.807,42.097 243.046,42.049 C243.489,42.819 244.416,42.783 245.122,42.346 C245.172,41.498 245.222,40.603 244.542,39.973 L244.53,39.973 Z M262.34,41.751 C262.26,40.841 261.624,40.489 261.152,39.973 C258.632,39.543 257.769,42.486 257.591,44.423 C256.93,44.546 256.993,45.208 256.698,45.61 C256.541,46.891 256.309,48.547 254.92,48.873 C254.752,50.237 255.653,51.386 256.698,52.136 C256.841,51.297 257.797,51.481 258.183,50.948 L259.071,50.948 C259.863,52.035 260.945,51.803 261.446,50.654 C261.559,50.053 261.891,49.556 262.339,49.17 C262.081,48.927 263.066,48.269 262.041,48.28 C262.297,48.034 261.312,47.379 262.339,47.388 C262.418,47.103 262.25,46.942 262.041,46.796 C262.339,45.312 261.978,43.698 262.93,42.346 L262.35,41.751 L262.34,41.751 Z M234.89,113.107 C234.703,113.354 234.428,113.382 234.147,113.402 C234.096,113.775 234.327,114.086 234.445,114.443 C234.814,114.55 235.116,114.19 235.485,114.295 C235.653,114.01 236.235,113.857 236.078,113.402 C235.728,113.122 235.298,113.152 234.888,113.112 L234.89,113.107 Z M241.71,106.877 C242.305,106.729 241.263,104.503 241.858,103.316 C242.45,102.129 242.748,102.426 242.45,100.794 C242.155,99.161 240.672,100.202 239.931,100.943 C239.868,101.762 238.862,101.946 238.743,102.721 C237.851,102.471 237.189,102.951 236.668,103.614 C237.165,103.51 237.236,104.038 237.557,104.206 L237.557,105.095 C238.944,105.76 238.744,107.19 238.447,108.362 C239.089,109.434 239.944,110.159 241.118,110.438 C242.678,109.878 242.568,108.208 241.718,106.868 L241.71,106.877 Z M261.52,112.137 C261.146,110.137 256.848,112.953 253.88,111.617 C253.5,110.778 252.743,111.067 252.102,111.022 C251.684,111.314 251.342,111.636 251.507,112.21 C250.297,112.273 248.943,111.466 247.946,112.805 C246.65,113.171 246.291,111.203 244.98,111.617 C244.17,112.722 243.198,112.953 242.012,112.21 C240.974,113.397 239.331,114.969 240.824,116.956 C241.266,117.552 244.084,118.59 244.308,116.884 C245.33,117.261 246.39,116.916 247.425,117.032 C247.865,117.516 248.603,117.184 249.056,117.627 C249.575,118.44 250.61,119.188 250.836,118.815 L251.505,118.144 C253.055,119.463 251.33,120.849 251.505,122.299 C253.32,125.004 255.527,127.347 258.033,129.419 C257.001,133.523 260.276,137.426 264.558,137.131 C264.222,136.21 265.489,135.686 265.152,134.758 C262.884,132.324 263.283,128.932 262.779,125.86 C264.052,126.834 265.533,126.344 266.931,126.451 C269.172,122.869 268.188,117.147 264.558,114.584 L264.558,110.433 C263.747,108.977 262.915,109.546 261.593,109.837 C261.475,111.033 262.307,111.844 262.779,112.806 C263.159,113.586 261.929,112.426 261.529,112.146 L261.52,112.137 Z M285.33,118.147 C285.285,114.95 283.614,111.938 284.142,108.653 C282.819,106.609 281.816,104.08 281.769,101.533 C283.222,100.599 284.886,100.232 286.515,99.754 C286.07,98.203 286.591,96.53 285.92,95.008 C284.699,94.482 284.176,92.562 282.36,93.226 C282.597,92.21 280.518,92.742 281.173,91.448 L281.173,86.106 C281.586,86.397 282.67,86.719 282.508,87.293 C285.277,86.806 286.86,89.372 287.107,92.04 C289.281,90.426 288.828,87.35 288.889,84.92 C287.616,84.217 286.624,83.226 285.919,81.954 C284.448,82.365 283.172,81.384 281.768,81.359 L281.768,76.612 C281.337,75.492 279.821,76.549 279.395,75.425 C278.977,74.343 279.004,73.165 278.207,71.864 L276.425,71.864 C273.891,68.844 269.343,69.572 265.745,70.086 C263.871,71.244 262.902,73.185 261.592,74.832 C259.258,74.186 257.697,71.852 255.064,71.864 C254.348,72.567 254.245,73.725 253.286,74.237 C253.04,75.88 254.297,77.326 253.879,78.985 L252.691,78.985 C253.04,80.13 251.321,79.203 251.503,80.171 C250.959,82.504 251.982,83.775 253.878,84.919 C255.179,84.238 256.674,84.238 258.033,83.731 C257.301,84.595 259.351,84.06 258.624,84.919 C260.181,85.261 261.459,84.405 262.779,83.731 C264.397,83.282 265.358,84.421 266.34,85.513 C266.643,86.601 265.972,87.497 265.745,88.478 C267.238,88.887 268.33,89.659 269.306,90.852 C269.34,92.544 268.083,93.909 268.118,95.598 C269.5,97.285 271.046,96.036 272.865,96.193 C270.992,97.032 268.108,96.95 268.713,99.754 C270.611,99.692 269.274,101.431 270.491,102.128 C269.419,103.812 270.08,105.688 269.9,107.467 C269.827,108.422 268.968,108.986 268.712,109.84 C268.105,111.83 267.079,111.73 267.524,113.401 C268.294,113.065 268.269,115.116 269.304,113.996 L269.304,115.774 C270.556,117.049 271.684,118.29 272.272,119.93 C272.56,120.746 273.338,120.951 273.902,121.265 C274.763,121.151 275.348,120.309 276.275,120.375 C278.053,120.375 280.724,122.005 281.468,120.521 C282.238,119.021 284.018,118.581 285.358,118.131 L285.33,118.147 Z M269.52,195.147 C270.093,195.16 270.482,194.751 270.986,194.818 C271.559,193.945 271.869,192.571 270.989,191.776 C270.546,191.378 270.448,190.849 270.6,190.223 C270.492,190.001 270.378,189.742 269.988,189.713 C268.55,189.611 266.875,189.096 265.732,190.565 C264.401,193.084 262.931,195.597 260.951,197.444 C261.187,198.261 260.039,198.398 260.277,199.211 C259.653,199.281 259.225,198.841 258.77,198.474 C259.06,200.179 257.076,200.905 257.368,202.607 C256.431,202.69 256.267,203.474 256.176,204.329 C253.429,204.795 250.811,205.908 248.125,206.674 C248.162,207.653 246.625,207.171 246.928,208.396 L245.891,208.304 C246.4,210.02 245.445,211.289 245.476,213.134 C244.787,212.326 245.072,214.453 244.384,213.646 C244.024,215.883 243.093,217.947 242.77,220.194 C244.868,221.498 248.015,220.378 249.729,218.365 C250.657,218.728 251.498,218.143 252.377,217.985 C254.568,219.875 257.287,218.096 259.597,219.216 L260.686,218.7 C260.521,219.402 260.819,219.969 261.05,220.557 C261.264,221 260.334,221.665 260.853,221.544 C259.464,222.073 259.208,221.896 257.78,222.095 C256.265,223.823 254.305,224.677 252.274,225.269 C254.704,227.883 257.109,223.794 259.698,224.088 C260.952,221.475 263.903,220.715 266.244,221.003 C269.354,218.231 271.794,213.889 270.921,209.249 C269.355,209.478 268.472,207.787 267.493,206.521 L266.455,206.429 C265.674,205.179 265.167,203.419 263.601,203.144 C263.07,201.73 263.741,201.537 263.81,200.733 C264.646,201.578 265.167,199.964 265.937,200.306 C267.537,198.986 267.407,195.106 269.507,195.156 L269.52,195.147 Z M440.83,185.687 C440.396,186.067 439.888,186.38 439.642,186.943 C440.204,188.598 440.323,190.601 441.66,191.924 C441.046,192.44 440.26,192.781 439.981,193.626 C439.814,194.411 439.472,195.424 440.339,195.993 C442.014,195.648 443.887,194.977 445.513,195.768 C446.728,194.543 448.861,194.521 448.861,194.521 C451.267,193.139 451.083,190.24 450.112,188.005 L450.933,186.543 C449.984,183.122 448.45,179.65 447.677,176.056 L446.339,174.581 C445.953,174.615 445.56,174.676 445.323,174.251 C444.231,175.688 442.611,174.91 441.573,174.074 C440.548,174.283 439.478,174.72 438.958,175.731 C440.199,177.187 441.089,178.375 440.348,179.71 C439.609,181.043 440.2,182.676 440.794,183.416 C441.394,184.156 438.504,184.536 440.844,185.686 L440.83,185.687 Z M589.73,246.617 C590.208,246.784 590.584,247.456 591.085,247.231 C591.513,246.594 591.702,245.559 591.683,244.467 C591.126,243.857 590.509,244.111 590.031,244.775 C589.431,245.725 589.731,246.615 589.731,246.615 L589.73,246.617 Z M532.76,227.037 L532.167,227.037 L532.167,227.629 C532.708,227.983 532.87,228.489 532.76,229.114 C532.116,229.135 532.128,229.562 532.167,230.002 C532.482,230.354 532.834,230.642 533.354,230.598 C533.344,231.342 532.48,231.844 532.76,232.674 C533.439,233.064 533.749,233.206 534.243,233.861 C535.809,234.237 537.397,234.177 538.989,234.158 C538.907,234.443 539.078,234.604 539.288,234.751 L538.693,234.751 C538.575,235.279 537.921,235.59 538.1,236.234 C538.385,236.152 538.548,236.323 538.693,236.531 L538.693,237.124 C539.828,237.156 540.679,237.89 541.661,238.311 C540.104,239.754 540.344,242.014 541.363,243.653 C541.084,244.992 541.316,246.14 541.363,247.507 C540.781,247.906 541.17,248.498 541.066,248.991 C541.435,249.197 541.427,249.529 541.363,249.881 C541.794,250.508 542.591,250.393 543.141,250.774 C543.815,249.565 544.777,249.4 546.11,249.586 C546.245,248.428 547.604,248.856 548.185,248.103 C548.443,246.616 548.106,244.868 546.702,243.948 C546.483,242.673 547.129,241.331 546.407,240.093 C545.717,240.245 545.069,239.97 544.923,239.2 C545.306,237.34 544.133,235.697 542.847,234.454 C541.812,234.144 541.018,233.976 540.177,233.266 C539.468,231.824 540.388,230.089 539.288,228.818 C537.948,229.194 537.16,228.327 537.506,227.039 C536.648,226.299 535.561,226.343 534.54,226.146 C534.619,226.434 534.452,226.595 534.243,226.742 C533.713,226.652 533.303,227.192 532.753,227.032 L532.76,227.037 Z M404.89,426.697 L404.3,426.997 L404.3,428.482 C405.243,428.642 405.99,429.292 406.972,429.073 C407.824,428.46 408.197,427.46 408.158,426.405 C407.048,425.825 405.838,426.065 404.888,426.705 L404.89,426.697 Z M104.07,362.137 C105.121,360.314 96.341,360.694 94.997,361.947 C95.299,362.978 95.597,364.008 96.156,364.941 C97.094,365.266 98.232,364.992 98.988,365.872 C99.497,365.669 99.981,366.561 100.502,365.903 C101.488,366.95 103.155,366.254 104.139,367.317 C104.825,367.517 105.514,367.656 106.23,367.476 L106.552,366.03 C105.692,364.69 104.282,363.84 104.072,362.15 L104.07,362.137 Z M149.77,383.507 L152.666,384.149 C153.34,382.76 153.716,381.337 153.632,379.804 L152.762,379.612 C151.891,378.657 150.492,378.22 149.287,378.842 C148.014,377.675 146.264,378.921 144.748,378.746 C143.805,379.383 143.805,381.31 145.584,381.459 C147.365,381.605 148.402,381.459 148.255,382.199 C148.095,382.949 148.015,384.529 149.755,383.519 L149.77,383.507 Z M117.17,370.197 C117.17,370.197 115.919,369.438 115.752,368.365 C114.721,367.4 113.451,367.118 112.214,367.881 C111.521,369.319 112.386,370.618 112.825,371.969 C113.396,372.466 114.033,372.868 114.66,373.289 C115.482,373.919 116.694,373.679 117.429,374.508 C118.748,374.289 120.069,374.46 121.388,374.476 C121.657,375.246 122.214,375.787 122.803,376.309 C123.442,376.391 124.066,376.331 124.673,376.113 C125.033,377.11 126.043,377.543 126.604,378.366 L127.762,378.623 C128.183,378.353 128.755,378.424 129.113,378.012 C130.782,377.968 132.462,378.8 134.006,377.879 C135.858,378.208 137.643,378.96 139.573,378.808 C139.573,378.808 139.954,377.746 141.051,377.62 C141.24,376.348 141.589,374.51 143.272,374.466 C144.216,374.449 142.921,372.405 141.919,372.342 C141.154,371.133 140.839,369.753 139.118,369.899 C139.01,369.283 139.118,368.643 138.924,368.032 C136.624,367.46 134.37,366.118 133.13,364.013 C132.329,363.876 131.732,363.184 130.873,363.208 C130.579,363 130.288,362.784 130.133,362.437 C128.552,363.291 126.747,362.035 125.082,361.924 C125.12,363.506 120.456,362.523 121.408,363.358 C122.595,364.396 123.614,366.112 123.189,366.621 C122.449,367.514 123.329,369.716 123.926,369.874 C122.287,370.779 120.704,369.985 119.1,369.716 C118.67,370.526 117.76,369.786 117.16,370.196 L117.17,370.197 Z M124.67,319.447 C124.44,319.477 124.189,319.002 123.777,319.15 C123.359,320.675 125.549,322.931 123.185,323.602 L123.185,324.194 L123.777,324.789 L124.373,324.789 C125.002,324.201 125.439,323.594 125.263,322.71 C125.75,322.799 125.902,322.382 126.151,322.119 C125.288,322.053 125.63,321.097 125.56,320.635 C125.13,321.002 125.396,319.974 124.965,320.337 C124.775,320.098 125.286,319.62 124.965,319.447 L124.655,319.447 L124.67,319.447 Z M113.99,325.677 C114.433,324.197 111.91,323.304 111.319,324.787 C109.696,324.924 109.325,326.319 109.538,327.753 C110.436,328.253 110.434,329.022 111.021,329.829 C112.613,329.705 114.282,330.189 115.767,329.237 L115.767,327.161 C115.167,326.671 114.347,326.451 113.987,325.671 L113.99,325.677 Z M92.942,327.297 C92.942,327.297 89.218,330.431 87.743,330.869 L86.591,330.575 L85.861,333.449 C87.424,335.284 90.058,336.658 92.611,335.784 L92.906,334.636 L98.655,336.101 C98.821,335.664 98.337,334.658 99.523,335.098 C100.801,336.379 100.872,339.361 103.39,339.149 L104.248,340.591 C105.32,341.136 106.857,340.629 107.548,342.044 L107.256,343.196 L108.404,343.487 C107.707,344.794 108.937,345.959 108.675,347.231 C107.482,348.471 106.568,349.43 104.92,349.949 C104.402,351.11 104.469,352.326 104.614,353.545 C106.899,354.819 109.168,356.137 111.795,356.602 C112.409,356.431 113.017,356.181 113.668,356.466 C116.757,358.744 120.635,358.843 124.163,358.535 C124.935,357.234 126.369,356.49 126.34,354.804 C125.261,354.713 124.805,353.333 123.612,353.494 C121.492,354.905 119.193,353.38 116.995,353.028 C115.121,350.927 115.466,348.104 114.583,345.68 L110.558,344.652 C109.634,342.329 110.804,339.474 108.723,337.446 C104.146,335.471 102.048,331.227 100.427,326.756 C97.808,325.666 95.381,325.816 92.949,327.316 L92.942,327.297 Z M42.637,438.867 C40.562,438.276 39.078,440.055 40.266,441.241 C41.452,442.428 43.825,444.803 41.154,444.21 C38.486,443.615 36.966,446.97 38.486,447.474 C40.266,448.065 42.637,446.583 44.715,446.878 C45.899,445.698 44.714,440.658 42.637,438.878 L42.637,438.867 Z M177.927,662.567 L177.398,663.251 C71.668,600.701 0.708,485.041 0.708,352.711 C0.708,213.121 79.674,92.081 195.108,32.361 L197.212,33.009 C198.4,35.085 196.914,36.57 194.839,38.943 C192.762,41.317 191.278,44.878 192.168,46.953 C193.057,49.032 185.936,50.219 183.563,50.811 C181.19,51.406 177.334,52.591 176.149,61.194 C174.961,69.798 170.215,64.754 169.028,64.754 C167.841,64.754 163.984,71.282 160.721,70.985 C157.455,70.687 153.895,72.767 154.787,75.435 C155.676,78.106 150.929,80.479 147.961,79.887 C148.257,85.524 144.4,84.929 144.4,84.929 C144.4,84.929 143.808,88.785 137.577,89.973 C131.346,91.16 133.128,91.457 132.238,95.316 C131.345,99.17 123.634,97.689 123.335,103.325 C123.039,108.961 118.38,102.432 115.326,112.819 C113.842,117.863 108.798,119.344 107.019,119.049 C105.237,118.752 99.303,124.983 99.601,128.838 C97.525,130.025 92.777,128.246 94.262,132.993 L90.107,133.882 C90.107,133.882 92.184,142.19 86.249,143.674 C80.315,145.158 77.942,149.307 77.942,157.32 C77.942,160.881 68.153,158.213 68.746,159.101 C69.341,159.992 68.746,163.253 68.746,163.253 C68.746,163.253 64.296,158.506 66.67,170.08 C65.186,175.121 58.954,170.671 61.327,178.387 C63.702,186.099 59.252,174.529 56.581,191.442 C53.616,194.407 57.769,198.856 52.726,200.936 C54.208,205.384 51.833,209.243 47.98,212.207 C46.496,215.768 50.946,213.989 42.637,218.438 C42.637,219.922 41.154,223.777 39.078,224.963 C37.115,226.087 34.33,234.457 34.925,237.426 C34.925,237.426 32.255,240.096 33.145,240.986 C34.033,241.876 33.739,243.062 31.66,244.547 C29.585,246.03 31.66,248.996 31.66,248.996 L29.883,251.072 C29.883,251.072 31.069,254.041 29.883,255.227 C28.695,256.414 29.287,260.864 30.771,261.752 C32.256,262.645 32.848,260.272 32.848,260.272 C32.848,260.272 32.256,256.414 33.442,256.414 C34.63,256.414 34.63,254.041 34.63,254.041 C34.63,254.041 35.52,248.107 37.003,248.107 C38.487,245.435 38.355,241.559 38.487,238.91 C38.782,232.976 41.155,231.79 41.155,231.79 L41.822,228.153 C41.822,228.153 44.421,223.185 45.901,223.185 C47.386,223.185 48.276,223.185 47.684,224.372 C47.088,225.56 44.715,224.074 43.826,229.12 C44.124,231.79 43.234,234.163 43.234,234.163 C43.234,234.163 41.155,235.942 41.155,237.724 C41.155,239.502 42.343,243.953 41.453,244.845 C40.563,245.734 38.782,245.734 38.19,253.744 C37.002,256.117 34.926,255.524 36.408,262.348 C34.332,265.314 35.519,269.469 38.487,271.842 C41.453,274.215 39.08,277.479 36.114,277.776 L36.114,280.742 C31.661,278.964 34.034,284.303 34.332,285.489 C31.959,286.676 30.181,290.236 32.554,289.644 C34.927,289.049 33.147,292.609 33.147,292.609 C33.147,292.609 29.884,299.73 30.772,301.511 C31.662,303.289 31.368,308.631 31.368,308.631 L34.035,308.631 C34.035,308.631 35.52,311.894 34.035,313.97 C32.555,316.049 35.818,317.827 36.409,319.015 C37.004,320.202 37.302,321.686 36.409,323.169 C35.52,324.65 39.081,327.321 37.893,329.694 C36.705,332.068 37.595,336.815 39.968,337.41 C42.343,338.003 42.937,340.376 46.199,339.486 C49.461,338.596 47.981,344.233 47.981,344.233 C47.981,344.233 51.244,348.98 50.354,350.464 C50.947,351.944 53.915,351.944 53.915,351.944 C53.915,351.944 51.244,355.802 52.133,357.286 C53.023,358.77 53.321,363.22 53.321,363.22 L56.289,364.704 C56.289,364.704 57.771,367.372 59.255,368.559 C60.739,369.746 58.365,374.198 61.628,373.305 C64.003,376.572 62.816,381.613 61.33,382.505 C59.85,383.394 64.299,384.979 64.299,386.656 C64.299,390.217 67.86,391.402 67.86,391.402 C67.562,392.292 64.004,393.777 66.377,395.26 C68.75,396.744 68.452,399.117 69.938,403.568 C71.718,405.794 75.279,406.831 72.459,413.653 C69.641,420.479 74.238,416.919 74.387,417.068 C74.536,417.214 72.754,419.294 74.982,418.553 C77.208,417.808 80.768,417.511 80.768,420.33 C80.768,423.146 81.951,425.378 87.293,424.486 C87.887,422.555 91.388,417.522 91.742,424.188 C91.894,427.003 93.08,425.374 93.08,425.374 C93.08,425.374 92.389,428.748 94.413,430.268 C95.008,430.714 94.115,432.938 94.115,432.938 C94.115,432.938 96.343,434.869 95.455,438.131 C94.562,441.395 98.419,439.021 97.676,443.027 C96.936,447.033 99.015,446.881 99.015,446.881 C99.015,446.881 97.258,448.394 96.641,455.188 C96.196,460.086 93.227,455.931 88.334,459.935 C89.369,462.461 86.105,463.942 84.773,464.682 C83.435,465.425 82.248,466.613 84.475,469.135 C83.435,471.359 76.909,471.508 81.358,477.145 C78.096,478.922 80.817,481.768 81.212,484.414 C81.805,488.417 74.833,487.529 80.617,497.022 L84.327,496.43 C84.327,496.43 82.545,500.436 81.507,500.879 C80.469,501.325 84.327,508.297 86.848,508.744 C89.369,509.186 92.929,514.23 91.298,517.493 C92.929,518.383 95.156,521.943 94.267,524.316 C93.374,526.689 95.897,530.547 95.897,530.547 C95.897,530.547 100.643,536.183 102.574,537.072 C99.16,540.784 106.135,545.531 107.913,545.38 C109.695,545.234 105.392,553.839 118.594,559.029 C119.037,566.447 127.126,564.655 129.126,571.193 C131.351,578.463 138.62,578.165 138.62,578.165 C138.62,578.165 143.07,580.39 141.737,585.137 C144.553,585.137 144.85,585.583 144.703,586.324 C144.554,587.067 141.142,590.477 141.142,590.477 C141.142,590.477 146.038,592.11 144.255,597.748 C142.477,603.384 152.119,598.936 151.674,607.537 C154.344,610.059 150.338,616.736 158.35,618.664 C155.382,623.857 157.31,630.976 161.018,631.568 C164.728,632.164 158.497,642.1 165.471,642.692 L165.471,646.106 C165.471,646.106 171.551,645.066 171.997,650.111 C172.439,655.155 178.525,656.639 176.445,658.715 C174.355,660.825 177.165,662.455 177.915,662.605 L177.927,662.567 Z" id="path-4"></path>
        <radialGradient cx="50.0001398%" cy="50.0007002%" fx="50.0001398%" fy="50.0007002%" r="50.0504117%" gradientTransform="translate(0.500001,0.500007),scale(0.997988,1.000000),translate(-0.500001,-0.500007)" id="radialGradient-6">
            <stop stop-color="#3898D4" offset="0%"></stop>
            <stop stop-color="#3898D4" offset="39.01%"></stop>
            <stop stop-color="#184797" offset="98.9%"></stop>
        </radialGradient>
        <rect id="path-7" x="8.54898273" y="34.7855492" width="676" height="199"></rect>
        <rect id="path-9" x="9.7413831" y="18.456767" width="357" height="202"></rect>
    </defs>
    <g id="Orthodrome" stroke="none" stroke-width="1" fill="none" fill-rule="evenodd">
        <g id="Group" transform="translate(442.000000, 9.000000)">
            <g id="Globe_Atlantic">
                <g id="Clipped">
                    <mask id="mask-2" fill="white">
                        <use xlink:href="#path-1"></use>
                    </mask>
                    <g id="SVGID_1_"></g>
                    <rect id="Rectangle" fill="url(#radialGradient-3)" mask="url(#mask-2)" x="0.709" y="0.708" width="715.56" height="720"></rect>
                </g>
                <g id="Clipped" transform="translate(0.000000, 8.000000)">
                    <mask id="mask-5" fill="white">
                        <use xlink:href="#path-4"></use>
                    </mask>
                    <g id="SVGID_4_"></g>
                    <rect id="Rectangle" fill="url(#radialGradient-6)" mask="url(#mask-5)" x="0.709" y="-1.415" width="715.56" height="714.12"></rect>
                </g>
                <path d="M608.12,127.93 C609.263,127.619 609.345,129.43 610.493,129.116 C610.057,130.927 610.876,132.218 612.272,133.269 C611.674,136.005 613.126,137.936 614.054,140.389 C615.199,139.923 615.734,140.946 616.427,141.576 C618.297,140.339 618.955,137.389 618.8,135.051 C617.937,135.126 617.364,134.064 616.427,134.456 C615.649,132.74 615.82,130.924 615.832,129.116 C613.019,128.1 614.807,125.347 613.459,123.182 C611.281,123.461 609.106,122.316 606.933,124.37 C605.763,125.85 606.653,128.51 608.133,127.92 L608.12,127.93 Z" id="Path" fill="#175DAB"></path>
                <path d="M609.9,141.58 C609.309,137.428 602.188,135.055 605.749,144.548 C602.78,146.922 602.188,152.857 611.683,152.857 C609.901,157.008 617.021,159.679 616.43,162.942 C615.835,166.208 617.91,166.502 619.991,166.502 C622.067,166.502 626.515,167.098 626.515,171.249 C628.888,170.36 632.746,171.547 631.561,176.889 C630.373,182.228 636.307,181.93 637.197,181.93 C638.086,181.93 643.969,194.068 647.286,182.228 C649.362,174.81 643.131,177.184 643.131,177.184 C643.131,177.184 642.241,170.955 640.165,171.249 C638.086,171.547 638.681,165.613 636.308,165.315 C633.935,165.021 633.045,165.021 631.859,162.942 C628.889,163.835 627.406,152.857 623.551,153.745 C619.693,154.635 617.617,151.67 617.617,151.67 C617.617,151.67 611.088,150.186 612.87,145.736 C614.65,141.266 609.9,141.566 609.9,141.566 L609.9,141.58 Z" id="Path" fill="#175DAB"></path>
                <path d="M183.27,87.582 C182.92,89.901 181.125,90.269 179.116,89.955 L179.116,94.107 C178.477,94.809 177.777,95.388 176.742,95.294 C177.622,96.281 178.787,97.401 180.303,97.075 C182.149,95.535 184.544,94.61 186.831,94.702 C186.698,93.503 187.73,92.768 188.019,91.733 C190.023,90.408 192.895,92.113 193.953,89.36 C194.384,87.553 193.564,86.261 192.172,85.208 C190.953,85.23 189.881,86.113 188.611,85.8 C188.577,83.835 187.028,82.372 186.832,80.462 L184.459,80.462 L184.459,84.613 C183.879,84.452 183.557,84.794 183.271,85.208 L183.271,87.582 L183.27,87.582 Z" id="Path" fill="#175DAB"></path>
                <path d="M173.18,103.01 C172.78,103.01 173.57,103.01 173.18,103.01 C172.86,103.564 172.465,104.092 172.588,104.788 C174.708,104.778 176.845,104.459 178.522,105.975 C177.415,106.786 178.129,107.955 177.927,108.944 C178.342,109.232 178.684,109.554 178.522,110.131 C182.547,111.207 181.382,106.527 181.488,104.196 C180.566,102.681 178.884,103.008 177.335,103.01 C177.497,102.434 177.155,102.111 176.74,101.822 C175.402,102.056 173.183,99.993 172.589,102.415 L173.179,103.015 L173.18,103.01 Z" id="Path" fill="#175DAB"></path>
                <path d="M136.37,193.61 C132.24,194.983 131.645,200.917 136.987,199.73 C142.325,198.543 146.205,197.29 146.788,198.657 C147.371,200.028 144.402,202.699 146.184,202.402 C147.963,202.104 147.963,204.182 144.997,206.258 C142.029,208.335 140.124,210.708 137.661,214.015 C132.831,220.499 135.504,232.069 141.437,218.424 C147.371,204.775 148.854,207.742 148.854,207.742 C148.854,207.742 154.491,208.037 149.446,215.752 C150.93,216.939 151.521,215.752 153.007,215.455 C149.446,218.424 150.363,232.971 155.678,219.311 C157.753,213.97 157.232,214.292 157.232,214.292 C161.612,212.782 162.349,204.552 154.119,205.108 C152.71,199.728 158.348,196.465 151.82,193.203 C150.634,189.346 143.245,189.766 142.19,191.782 C141.14,193.772 136.94,194.592 136.37,193.592 L136.37,193.61 Z" id="Path" fill="#175DAB"></path>
                <path d="M154.37,226.84 C151.756,228.245 150.202,238.514 155.083,232.052 C159.962,225.587 158.949,226.337 158.949,226.337 C158.949,226.337 161.24,223.08 162.912,223.935 C164.586,224.789 166.748,222.415 167.171,221.581 C167.599,220.745 170.14,217.827 164.124,219.92 C158.104,222.008 159.303,223.989 157.751,224.354 C156.191,224.714 153.761,224.944 154.371,226.834 L154.37,226.84 Z" id="Path" fill="#175DAB"></path>
                <path d="M150.93,143.06 C149.446,145.433 154.194,136.237 154.788,141.872 C155.379,147.509 155.379,148.695 156.268,149.588 C157.161,150.478 157.751,154.927 156.268,157.003 C154.788,159.082 154.49,158.785 153.895,155.522 C153.303,152.256 153.005,149.292 152.413,148.104 C151.818,146.917 150.93,148.104 150.633,149.588 C150.335,151.069 150.633,154.335 149.743,155.225 C148.853,156.114 144.996,151.962 147.072,149.588 C149.142,147.228 152.112,144.848 150.922,143.068 L150.93,143.06 Z" id="Path" fill="#175DAB"></path>
                <path d="M208.04,66.22 C207.598,65.33 198.844,66.811 207.006,70.967 C206.41,72.897 207.299,77.644 209.821,72.004 C210.268,70.669 212.939,70.371 212.939,70.371 C213.381,72.004 215.754,68.741 212.787,66.963 C209.821,65.181 210.565,63.251 210.565,63.251 C210.565,63.251 208.035,64.884 208.035,66.22 L208.04,66.22 Z" id="Path" fill="#175DAB"></path>
                <path d="M684.08,428.18 L684.08,429.96 C683.014,430.833 682.44,432.118 682.3,433.52 C682.694,433.919 683.09,434.313 683.486,434.707 C682.143,435.932 683.255,437.502 682.893,438.862 C680.9,438.352 679.514,440.185 678.738,441.828 C678.273,443.65 679.134,444.922 680.52,445.983 C680.075,448.798 681.189,451.502 681.113,454.29 C681.794,454.932 682.634,454.92 683.486,454.882 C682.979,450.213 685.271,445.912 685.267,441.236 C685.948,439.977 686.707,438.77 687.641,437.675 L688.829,437.675 C688.607,435.125 690.964,433.315 690.015,430.556 C688.458,430.008 687.613,428.613 686.454,427.586 C685.474,428.144 684.876,427.172 684.081,426.995 L684.081,428.185 L684.08,428.18 Z" id="Path" fill="#175DAB"></path>
                <path d="M361.6,44.74 C230.39,23.17 143.39,68.918 87.61,125.882" id="Path" stroke="#C7EAFB" stroke-width="0.7119"></path>
                <path d="M359.82,45.332 C412.038,33.465 583.67,59.722 640.63,139.233" id="Path" stroke="#C7EAFB" stroke-width="0.7119"></path>
                <path d="M715.4,384.15 C718.023,244.55 596.92,50.63 355.67,43.55" id="Path" stroke="#C7EAFB" stroke-width="0.7119"></path>
                <path d="M172.46,53.344 C198.567,32.574 296.33,19.223 361.6,44.74" id="Path" stroke="#C7EAFB" stroke-width="0.7119"></path>
                <path d="M371.24,0.976 C364.12,3.349 357.446,28.717 359.819,45.331 C359.819,45.331 378.064,8.988 404.173,3.646" id="Path" stroke="#C7EAFB" stroke-width="0.7119"></path>
                <path d="M359.82,45.332 C403.729,26.344 516.91,29.164 575.06,74.26" id="Path" stroke="#C7EAFB" stroke-width="0.7119"></path>
                <path d="M495.71,28.125 C467.822,19.223 397.209,17.443 359.83,45.331" id="Path" stroke="#C7EAFB" stroke-width="0.7119"></path>
                <path d="M360.71,43.851 C376.14,23.97 413.82,6.169 436.96,9.435" id="Path" stroke="#C7EAFB" stroke-width="0.7119"></path>
                <path d="M360.42,45.332 C355.674,31.686 346.92,10.471 332.088,1.571" id="Path" stroke="#C7EAFB" stroke-width="0.7119"></path>
                <path d="M288.62,7.356 C314.729,6.764 355.078,34.059 361.604,44.74" id="Path" stroke="#C7EAFB" stroke-width="0.7119"></path>
                <path d="M247.08,18.631 C278.526,13.289 337.271,26.343 361.6,44.739" id="Path" stroke="#C7EAFB" stroke-width="0.7119"></path>
                <path d="M219.04,29.014 C133.597,76.484 177.061,177.064 366.94,177.064 C511.72,177.064 599.69,74.554 514.24,36.584" id="Path" stroke="#C7EAFB" stroke-width="0.7119"></path>
                <path d="M115.06,96.957 C70.489,168.477 151.076,244.977 298.71,263.197 C320.107,265.838 342.912,267.255 366.947,267.255 C511.727,267.255 650.727,191.452 612.747,107.195" id="Path" stroke="#C7EAFB" stroke-width="0.7119"></path>
                <path d="M46.081,185.22 C27.093,288.47 177.061,363.38 366.941,363.38 C511.721,363.38 696.411,295.884 670.301,184.33" id="Path" stroke="#C7EAFB" stroke-width="0.7119"></path>
                <path d="M6.62,295.29 C31.542,392.602 176.92,460.55 366.8,460.55 C511.58,460.55 708.58,394.092 707.405276,280.16" id="Path" stroke="#C7EAFB" stroke-width="0.7119"></path>
                <path d="M715.85,375.25 C696.86,491.55 506.98,550.88 361.01,547.32 C162.83,542.573 42.67,493.47 1.13,377.17" id="Path" stroke="#C7EAFB" stroke-width="0.7119"></path>
                <path d="M24.57,231.65 C72.636,117.72 216.74,32.71 361.6,44.74" id="Path" stroke="#C7EAFB" stroke-width="0.7119"></path>
                <path d="M1.431,385.34 C-0.943,258.95 139.091,51.26 361.601,44.74" id="Path" stroke="#C7EAFB" stroke-width="0.7119"></path>
                <path d="M39.998,524.18 C-7.133,327.8 112.644,111.17 359.828,45.33" id="Path" stroke="#C7EAFB" stroke-width="0.7119"></path>
                <path d="M145.03,649.38 C-27.05,429.84 179.44,109.42 359.82,45.33" id="Path" stroke="#C7EAFB" stroke-width="0.7119"></path>
                <path d="M226.91,695.67 C70.87,583.22 165.2,179.43 359.82,45.33" id="Path" stroke="#C7EAFB" stroke-width="0.7119"></path>
                <path d="M359.82,45.332 C248.16,159.342 172.32,665.262 296.922,715.102" id="Path" stroke="#C7EAFB" stroke-width="0.7119"></path>
                <path d="M347.96,720.3 C298.702,717.138 344.603,60.56 359.827,45.34" id="Path" stroke="#C7EAFB" stroke-width="0.7119"></path>
                <path d="M677.43,523.59 C738.493,316.96 640.935,119.65 357.45,44.15" id="Path" stroke="#C7EAFB" stroke-width="0.7119"></path>
                <path d="M572.25,649.24 C787.05,440.52 570.748,119.93 357.45,44.15" id="Path" stroke="#C7EAFB" stroke-width="0.7119"></path>
                <path d="M490.37,695.37 C668.66,575.68 613.84,220.8 357.45,44.15" id="Path" stroke="#C7EAFB" stroke-width="0.7119"></path>
                <path d="M357.45,44.145 C490.61,180.115 609.4,643.355 419.753,715.395" id="Path" stroke="#C7EAFB" stroke-width="0.7119"></path>
                <path d="M368.87,720.44 C495.45,712.323 377.627,64.33 357.449,44.14" id="Path" stroke="#C7EAFB" stroke-width="0.7119"></path>
                <path d="M73.376,579.07 C173.506,696.85 525.966,711.09 635.296,588.564" id="Path" stroke="#C7EAFB" stroke-width="0.7119"></path>
                <path d="M226.61,695.22 C284.994,721.155 428.13,722.395 490.37,695.372" id="Path" stroke="#C7EAFB" stroke-width="0.7119"></path>
                <path d="M358.49,720.71 C556.09,720.71 716.27,559.53 716.27,360.71 C716.27,264.505 678.761,177.11 617.659,112.53 C552.489,43.643 460.469,0.71 358.489,0.71 C160.899,0.708 0.709,161.89 0.709,360.71 C0.708,559.53 160.899,720.71 358.489,720.71 L358.49,720.71 Z" id="Path" stroke="#000000" stroke-width="1.4171"></path>
                <path d="M24.719,491.4 C98.154,628.44 538.809,700.26 693.889,486.803" id="Path" stroke="#C7EAFB" stroke-width="0.7119"></path>
            </g>
            <g id="Oval" transform="translate(9.000000, 107.000000)">
                <mask id="mask-8" fill="white">
                    <use xlink:href="#path-7"></use>
                </mask>
                <g id="Mask" transform="translate(346.548983, 134.285549) rotate(-6.000000) translate(-346.548983, -134.285549) "></g>
                <path d="M327.5,129.5 C168.184886,129.5 40.5,91.999477 40.5,44.5 C40.5,-2.99947702 168.184886,-40.5 327.5,-40.5 C486.815114,-40.5 614.5,-2.99947702 614.5,44.5 C614.5,91.999477 486.815114,129.5 327.5,129.5 Z M327.892732,126.546786 C483.639747,126.546786 611.392732,89.7247592 611.392732,45.5467861 C611.392732,1.36881307 483.639747,-35.4532139 327.892732,-35.4532139 C172.145717,-35.4532139 44.3927325,1.36881307 44.3927325,45.5467861 C44.3927325,89.7247592 172.145717,126.546786 327.892732,126.546786 Z" stroke-opacity="0.2" stroke="#FF001F" fill-opacity="0.2" fill="#FF001F" fill-rule="nonzero" mask="url(#mask-8)" transform="translate(327.500000, 44.500000) rotate(-6.000000) translate(-327.500000, -44.500000) "></path>
            </g>
            <g id="Oval" transform="translate(161.000000, 124.000000)">
                <mask id="mask-10" fill="white">
                    <use xlink:href="#path-9"></use>
                </mask>
                <g id="Mask" transform="translate(188.241383, 119.456767) rotate(-6.000000) translate(-188.241383, -119.456767) "></g>
                <path d="M175.5,112 C17.0874648,112 -111,74.7373758 -111,27.5 C-111,-19.7373758 17.0874648,-57 175.5,-57 C333.912535,-57 462,-19.7373758 462,27.5 C462,74.7373758 333.912535,112 175.5,112 Z M175.892732,110.046786 C332.558719,110.046786 459.892732,72.9886788 459.892732,28.5467861 C459.892732,-15.8951065 332.558719,-52.9532139 175.892732,-52.9532139 C19.2267455,-52.9532139 -108.107268,-15.8951065 -108.107268,28.5467861 C-108.107268,72.9886788 19.2267455,110.046786 175.892732,110.046786 Z" stroke="#FF001F" fill="#FF001F" fill-rule="nonzero" mask="url(#mask-10)" transform="translate(175.500000, 27.500000) rotate(-6.000000) translate(-175.500000, -27.500000) "></path>
            </g>
            <circle id="Oval" stroke-opacity="0.2" stroke="#FF001F" stroke-width="4" fill="#FF001F" cx="168" cy="235" r="9"></circle>
            <circle id="Oval" stroke-opacity="0.2" stroke="#FF001F" stroke-width="4" fill="#FF001F" cx="524" cy="196" r="9"></circle>
        </g>
        <path d="M600.428,215 C599.126,215 598.874,214.412 599.294,213.278 L608.954,186.65 C609.374,185.432 609.962,185.18 611.138,185.18 L615.926,185.18 C617.102,185.18 617.69,185.474 618.11,186.566 L627.812,213.278 C628.232,214.412 627.854,215 626.594,215 L622.058,215 C619.916,215 619.244,214.538 618.908,213.236 L617.984,210.212 L608.828,210.212 L607.862,213.236 C607.484,214.538 606.896,215 604.838,215 L600.428,215 Z M616.052,203.618 L614.498,198.704 C613.658,195.848 613.574,192.782 613.574,192.782 L613.154,192.782 C613.154,192.782 613.196,195.806 612.356,198.662 L610.802,203.618 L616.052,203.618 Z" id="A" stroke="#FFFFFF" stroke-width="2" fill="#FF001F"></path>
        <path d="M954.99,181 C953.646,181 953.226,180.538 953.226,179.236 L953.226,152.944 C953.226,151.642 953.646,151.18 954.99,151.18 L967.296,151.18 C973.092,151.18 976.578,153.994 976.578,159.118 C976.578,161.932 975.696,163.822 973.554,165.292 L973.554,165.46 C976.242,166.636 977.796,169.03 977.796,172.684 C977.796,178.102 973.386,181 967.464,181 L954.99,181 Z M965.574,162.52 C967.254,162.52 968.178,161.89 968.178,160.252 C968.178,158.614 967.254,157.9 965.574,157.9 L961.5,157.9 L961.5,162.52 L965.574,162.52 Z M966.372,174.238 C968.178,174.238 969.102,173.482 969.102,171.718 C969.102,170.038 968.178,169.282 966.372,169.282 L961.5,169.282 L961.5,174.238 L966.372,174.238 Z" id="B" stroke="#FFFFFF" stroke-width="2" fill="#FF001F"></path>
    </g>
</svg>